<?xml version="1.0" encoding="utf-8"?>
<!-- Generator: Adobe Illustrator 23.1.1, SVG Export Plug-In . SVG Version: 6.00 Build 0)  -->
<svg version="1.1" id="Layer_1" xmlns="http://www.w3.org/2000/svg" xmlns:xlink="http://www.w3.org/1999/xlink" x="0px" y="0px"
	 viewBox="0 0 2134.6 1274.5" style="enable-background:new 0 0 2134.6 1274.5;" xml:space="preserve">
<style type="text/css">
	.st0{fill:#FFFFFF;}
	.st1{fill:#18225B;}
	.st2{opacity:0.18;fill:#54AB7F;}
	.st3{fill:#60B187;}
	.st4{opacity:0.25;}
	.st5{opacity:9.000000e-02;}
	.st6{fill:#FEFEFE;}
	.st7{opacity:0.34;}
	.st8{fill:#60B288;}
	.st9{fill:none;stroke:#60B288;stroke-width:2;stroke-linecap:round;stroke-linejoin:round;stroke-miterlimit:10;}
	.st10{fill:#153040;stroke:#60B288;stroke-miterlimit:10;}
	.st11{fill:#60B288;stroke:#60B288;stroke-miterlimit:10;}
	.st12{fill:none;}
	.st13{clip-path:url(#SVGID_2_);fill:#082433;}
	.st14{opacity:0.25;clip-path:url(#SVGID_2_);}
	.st15{opacity:0.34;clip-path:url(#SVGID_2_);}
	.st16{fill:#082433;}
	.st17{fill:#F9F6E8;}
	.st18{fill:none;stroke:#245958;stroke-width:2;stroke-linecap:round;stroke-linejoin:round;stroke-miterlimit:10;}
	.st19{fill:#245958;}
	.st20{fill:#153040;}
	.st21{fill:none;stroke:#153040;stroke-width:2;stroke-linecap:round;stroke-linejoin:round;stroke-miterlimit:10;}
	.st22{fill:#1C2025;}
	.st23{clip-path:url(#SVGID_4_);}
	.st24{fill:#458960;}
	.st25{fill:none;stroke:#458960;stroke-width:2;stroke-linecap:round;stroke-linejoin:round;stroke-miterlimit:10;}
	.st26{fill:#458960;stroke:#458960;stroke-miterlimit:10;}
	.st27{fill:#FDFDFD;}
	.st28{fill:#54AB7F;stroke:#000000;stroke-miterlimit:10;}
	.st29{fill:#FDFDFD;stroke:#000000;stroke-miterlimit:10;}
	.st30{fill:#B4B4B4;}
	.st31{fill:#54AB7F;}
	.st32{fill:#FDCC3D;}
	.st33{fill:#EACD8E;}
	.st34{fill:#1A1A1A;}
	.st35{fill:none;stroke:#000000;stroke-width:0.25;stroke-linecap:round;stroke-miterlimit:10;}
	.st36{fill:#1A1C20;}
	.st37{fill:none;stroke:#1A1C20;stroke-linecap:round;stroke-miterlimit:10;}
	.st38{fill:none;stroke:#000000;stroke-width:0.5;stroke-linecap:round;stroke-miterlimit:10;}
	.st39{fill:none;stroke:#000000;stroke-miterlimit:10;}
	.st40{fill:none;stroke:#000000;stroke-linecap:round;stroke-miterlimit:10;}
	.st41{fill:#4A916C;}
	.st42{fill:#327F57;}
	.st43{fill:#FDD860;}
	.st44{fill:#091623;}
	.st45{fill:#FFFFFF;stroke:#000000;stroke-miterlimit:10;}
	.st46{fill:#FDCC3D;stroke:#000000;stroke-miterlimit:10;}
	.st47{fill:#FFFFFF;stroke:#1A1C20;stroke-miterlimit:10;}
	.st48{fill:#3A3A3A;}
	.st49{fill:#E0EEEE;}
	.st50{fill:#F88B6E;}
	.st51{fill:#B7DAE9;}
	.st52{fill:#72BECF;}
	.st53{fill:#FDCC39;}
	.st54{fill:#E0EEEE;stroke:#000000;stroke-miterlimit:10;}
	.st55{fill:#417C5B;}
	.st56{fill:#FDD860;stroke:#000000;stroke-miterlimit:10;}
	.st57{fill:#262626;}
	.st58{fill:none;stroke:#1A1A1A;stroke-miterlimit:10;}
	.st59{fill:#C1C6F4;}
	.st60{fill:#292AA4;stroke:#1A1A1A;stroke-miterlimit:10;}
	.st61{fill:#5777CE;stroke:#000000;stroke-miterlimit:10;}
	.st62{fill:#292AA4;}
	.st63{fill:#5777CE;stroke:#1A1A1A;stroke-miterlimit:10;}
	.st64{fill:#5777CE;}
	.st65{fill:none;stroke:#000000;stroke-width:3;stroke-linecap:round;stroke-miterlimit:10;}
	.st66{opacity:0.18;}
	.st67{fill:#292AA4;stroke:#000000;stroke-miterlimit:10;}
	.st68{opacity:0.18;fill:#292AA4;}
	.st69{fill:#C5EAD7;stroke:#000000;stroke-miterlimit:10;}
	.st70{fill:#FDD860;stroke:#1A1A1A;stroke-miterlimit:10;}
	.st71{fill:#414042;}
	.st72{clip-path:url(#SVGID_6_);fill:#082433;}
	.st73{clip-path:url(#SVGID_6_);}
	.st74{opacity:0.7;clip-path:url(#SVGID_6_);}
	.st75{fill:none;stroke:#60B288;stroke-width:3;stroke-linecap:round;stroke-miterlimit:10;}
	.st76{opacity:0.7;}
	.st77{fill:none;stroke:#505050;stroke-width:2;stroke-linejoin:round;stroke-miterlimit:10;}
	.st78{fill:none;stroke:#505050;stroke-width:2;stroke-miterlimit:10;}
	.st79{fill:none;stroke:#505050;stroke-width:2;stroke-linecap:round;stroke-linejoin:round;stroke-miterlimit:10;}
	.st80{fill:none;stroke:#505050;stroke-width:2;stroke-linecap:round;stroke-miterlimit:10;}
	.st81{fill:none;stroke:#424242;stroke-width:10;stroke-linecap:round;stroke-linejoin:round;stroke-miterlimit:10;}
	.st82{fill:#424242;}
	.st83{fill:#143040;}
	.st84{fill:none;stroke:#143040;stroke-width:3;stroke-miterlimit:10;}
	.st85{fill:none;stroke:#18225B;stroke-width:2;stroke-miterlimit:10;}
	.st86{fill:none;stroke:#18225B;stroke-width:2;stroke-linecap:round;stroke-linejoin:round;stroke-miterlimit:10;}
	.st87{fill:none;stroke:#18225B;stroke-width:2;stroke-linecap:round;stroke-miterlimit:10;}
	.st88{fill:none;stroke:#18225B;stroke-linecap:round;stroke-miterlimit:10;}
	.st89{fill:none;stroke:#18225B;stroke-miterlimit:10;}
	.st90{clip-path:url(#SVGID_8_);}
	.st91{fill:none;stroke:#292AA4;stroke-linecap:round;stroke-miterlimit:10;}
	.st92{fill:none;stroke:#292AA4;stroke-miterlimit:10;}
	.st93{fill:none;stroke:#292AA4;stroke-linecap:round;stroke-linejoin:round;stroke-miterlimit:10;}
	.st94{clip-path:url(#SVGID_10_);}
	.st95{fill:none;stroke:#292AA4;stroke-width:2;stroke-miterlimit:10;}
	.st96{fill:none;stroke:#292AA4;stroke-width:2;stroke-linecap:round;stroke-linejoin:round;stroke-miterlimit:10;}
	.st97{fill:none;stroke:#292AA4;stroke-width:2;stroke-linecap:round;stroke-miterlimit:10;}
	.st98{clip-path:url(#SVGID_10_);fill:none;stroke:#292AA4;stroke-width:2;stroke-miterlimit:10;}
	.st99{clip-path:url(#SVGID_10_);fill:none;stroke:#292AA4;stroke-width:2;stroke-linecap:round;stroke-miterlimit:10;}
	.st100{clip-path:url(#SVGID_12_);}
	.st101{clip-path:url(#SVGID_14_);}
	.st102{clip-path:url(#SVGID_16_);}
	.st103{clip-path:url(#SVGID_18_);fill:#18225B;}
	.st104{clip-path:url(#SVGID_18_);}
	.st105{clip-path:url(#SVGID_18_);fill:none;stroke:#292AA4;stroke-miterlimit:10;}
	.st106{clip-path:url(#SVGID_18_);fill:none;stroke:#292AA4;stroke-linecap:round;stroke-miterlimit:10;}
	.st107{clip-path:url(#SVGID_18_);fill:none;stroke:#292AA4;stroke-linecap:round;stroke-linejoin:round;stroke-miterlimit:10;}
	.st108{clip-path:url(#SVGID_20_);fill:#292AA4;}
	.st109{clip-path:url(#SVGID_20_);}
	.st110{fill:none;stroke:#18225B;stroke-linecap:round;stroke-linejoin:round;stroke-miterlimit:10;}
	.st111{clip-path:url(#SVGID_20_);fill:none;stroke:#18225B;stroke-miterlimit:10;}
	.st112{clip-path:url(#SVGID_20_);fill:none;stroke:#18225B;stroke-linecap:round;stroke-miterlimit:10;}
	.st113{clip-path:url(#SVGID_20_);fill:none;stroke:#18225B;stroke-linecap:round;stroke-linejoin:round;stroke-miterlimit:10;}
	.st114{fill:none;stroke:#495053;stroke-width:22.7273;stroke-miterlimit:10;}
	.st115{fill:none;stroke:#495053;stroke-width:22.7273;stroke-linejoin:round;stroke-miterlimit:10;}
	.st116{fill:none;stroke:#495053;stroke-width:22.7273;stroke-linecap:round;stroke-linejoin:round;stroke-miterlimit:10;}
	.st117{clip-path:url(#SVGID_22_);fill:#292AA4;}
	.st118{clip-path:url(#SVGID_22_);}
	.st119{clip-path:url(#SVGID_22_);fill:none;stroke:#18225B;stroke-miterlimit:10;}
	.st120{clip-path:url(#SVGID_22_);fill:none;stroke:#18225B;stroke-linecap:round;stroke-miterlimit:10;}
	.st121{clip-path:url(#SVGID_22_);fill:none;stroke:#18225B;stroke-linecap:round;stroke-linejoin:round;stroke-miterlimit:10;}
	.st122{fill:#48443E;}
	.st123{fill:#C1C6F4;stroke:#000000;stroke-miterlimit:10;}
	.st124{fill:#42413F;}
	.st125{opacity:0.36;fill:#00E328;stroke:#000000;stroke-miterlimit:10;}
	.st126{fill:#00E328;stroke:#000000;stroke-miterlimit:10;}
	.st127{fill-rule:evenodd;clip-rule:evenodd;fill:#C1C6F4;stroke:#000000;stroke-miterlimit:10;}
	.st128{fill-rule:evenodd;clip-rule:evenodd;fill:#5777CE;stroke:#000000;stroke-miterlimit:10;}
	.st129{fill:#EDCFA9;}
	.st130{fill:#E38B66;}
	.st131{fill:#FB3E41;}
	.st132{fill:#122B50;}
	.st133{fill:#4E6BAD;stroke:#000000;stroke-miterlimit:10;}
	.st134{fill:#FDDEFD;}
	.st135{fill:#FFF2FF;}
	.st136{fill:#FACAF5;}
	.st137{fill:#FCCCFD;}
	.st138{fill:#FDE6FC;}
	.st139{fill:none;stroke:#000000;stroke-width:3;stroke-miterlimit:10;}
	.st140{fill:none;stroke:#000000;stroke-width:3;stroke-miterlimit:10;stroke-dasharray:11.9403,11.9403;}
	.st141{fill:none;stroke:#000000;stroke-width:3;stroke-miterlimit:10;stroke-dasharray:11.9576,11.9576;}
	.st142{fill:none;stroke:#000000;stroke-width:3;stroke-miterlimit:10;stroke-dasharray:12;}
	.st143{fill:#5777CE;stroke:#000000;stroke-width:0.5;stroke-miterlimit:10;}
	.st144{fill:#C1C6F4;stroke:#000000;stroke-width:0.5;stroke-miterlimit:10;}
	.st145{fill:#4E6BAD;stroke:#000000;stroke-width:0.5;stroke-miterlimit:10;}
	.st146{fill-rule:evenodd;clip-rule:evenodd;fill:#C1C6F4;stroke:#000000;stroke-width:0.5;stroke-miterlimit:10;}
	.st147{fill-rule:evenodd;clip-rule:evenodd;fill:#5777CE;stroke:#000000;stroke-width:0.5;stroke-miterlimit:10;}
	.st148{fill:none;stroke:#5777CE;stroke-miterlimit:10;}
</style>
<g>
	<g>
		<rect x="1409.6" y="586" class="st61" width="8.9" height="8.9"/>
		<g>
			<rect x="1421.4" y="587.6" class="st61" width="15.9" height="15.9"/>
			<line class="st40" x1="1429" y1="587.8" x2="1429" y2="594"/>
		</g>
		<g>
			<rect x="1394" y="592.2" class="st61" width="14.5" height="14.5"/>
			<line class="st40" x1="1400.9" y1="592.3" x2="1400.9" y2="598"/>
		</g>
		<g>
			<rect x="1406" y="592.2" class="st61" width="15.9" height="15.9"/>
			<line class="st40" x1="1413.6" y1="592.3" x2="1413.6" y2="598.6"/>
		</g>
		<rect x="1453.1" y="587.6" class="st61" width="15.9" height="15.9"/>
		<rect x="1437.2" y="591.6" class="st61" width="15.9" height="15.9"/>
		<rect x="1440.8" y="582.8" class="st61" width="8.9" height="8.9"/>
		<rect x="1453.1" y="576" class="st61" width="11.6" height="11.6"/>
		<g id="XMLID_34_">
			<polygon id="XMLID_44_" class="st123" points="1468.8,568.8 1469,600.9 1481.7,601.5 1482.4,567.1 			"/>
			<g id="XMLID_35_">
				<g id="XMLID_37_">
					<polygon id="XMLID_43_" class="st132" points="1539.8,599.8 1537.8,600.6 1500.2,529 1502.2,528.1 					"/>
					<polygon id="XMLID_42_" class="st123" points="1476.1,568.9 1482.3,612.1 1544.8,604.3 1523.5,567.4 					"/>
					<path id="XMLID_41_" class="st61" d="M1600.6,576.9l-14.1,33.6l-3.9,9.3l-184.1-1.8l-2-4l-8.6-16.9c0,0,51.2,3.6,89.7,1.2
						C1516.2,596,1600.6,576.9,1600.6,576.9z"/>
					<polygon id="XMLID_40_" class="st133" points="1586.6,610.5 1582.7,619.8 1398.5,618 1396.5,614.1 					"/>
					<rect id="XMLID_39_" x="1468.8" y="566.6" class="st123" width="62.3" height="2.2"/>
					<polygon id="XMLID_38_" class="st61" points="1506.2,572 1506.7,582.3 1523.3,581.8 1519.5,571.4 					"/>
				</g>
				<polygon id="XMLID_36_" class="st61" points="1486.1,572.4 1498,572 1498.9,582.3 1484.3,582.7 				"/>
			</g>
		</g>
		<line class="st40" x1="1445.4" y1="583" x2="1445.4" y2="589.3"/>
		<line class="st40" x1="1414" y1="586.2" x2="1414" y2="589.9"/>
		<line class="st40" x1="1460.7" y1="587.8" x2="1460.7" y2="594"/>
		<line class="st40" x1="1458.9" y1="576.1" x2="1458.9" y2="582.4"/>
		<g>
			<g>
				<circle class="st64" cx="1421.1" cy="564.5" r="8.6"/>
			</g>
			<g>
				<g>
					<g>
						<path d="M1518.1,536.3c0,0.1-0.1,0.1-0.1,0.2c-0.1,0.1-0.3,0.1-0.5,0c-0.2-0.2-0.4-0.5-0.6-0.7c-0.1-0.1-0.1-0.4,0-0.5
							c0.1-0.1,0.3-0.1,0.5,0c0.2,0.2,0.4,0.5,0.6,0.7C1518.1,536.1,1518.2,536.2,1518.1,536.3z M1515.1,532.8c0,0.1,0,0.1-0.1,0.2
							c-0.1,0.1-0.3,0.1-0.5,0c-0.9-0.9-1.8-1.9-2.6-2.7c-0.1-0.1-0.1-0.3,0-0.5c0.1-0.1,0.3-0.1,0.5,0c0.9,0.9,1.8,1.8,2.7,2.7
							C1515.1,532.6,1515.1,532.7,1515.1,532.8z M1509.6,527.5c0,0.1,0,0.1-0.1,0.1c-0.1,0.1-0.3,0.1-0.5,0
							c-0.9-0.8-1.9-1.7-2.9-2.4c-0.1-0.1-0.2-0.3-0.1-0.5c0.1-0.1,0.3-0.2,0.5-0.1c1,0.8,2,1.6,2.9,2.4
							C1509.6,527.3,1509.7,527.4,1509.6,527.5z M1503.7,522.8c0,0,0,0.1-0.1,0.1c-0.1,0.1-0.3,0.2-0.5,0.1c-1.1-0.7-2.1-1.4-3.2-2
							c-0.2-0.1-0.2-0.3-0.1-0.5c0.1-0.2,0.3-0.2,0.5-0.1c1.1,0.6,2.1,1.3,3.2,2.1C1503.7,522.5,1503.7,522.7,1503.7,522.8z
							 M1497.2,518.9c-0.1,0.2-0.3,0.3-0.5,0.2c-1.1-0.6-2.3-1.1-3.4-1.5c-0.2-0.1-0.3-0.2-0.2-0.4c0.1-0.2,0.3-0.3,0.4-0.2
							c1.2,0.4,2.3,1,3.5,1.5C1497.1,518.6,1497.2,518.8,1497.2,518.9z M1490.1,516.2c-0.1,0.2-0.2,0.3-0.4,0.2
							c-0.6-0.2-1.2-0.3-1.8-0.5c-0.6-0.1-1.2-0.3-1.9-0.4c-0.2,0-0.3-0.2-0.3-0.4c0-0.2,0.2-0.3,0.4-0.3c0.6,0.1,1.3,0.2,1.9,0.4
							c0.6,0.1,1.2,0.3,1.8,0.5C1490,515.8,1490.1,516,1490.1,516.2z M1482.6,514.9c0,0.2-0.2,0.3-0.3,0.3c-1.2-0.1-2.5-0.1-3.8,0
							c-0.2,0-0.3-0.1-0.3-0.3c0-0.2,0.1-0.3,0.3-0.3c1.3-0.1,2.6-0.1,3.8,0C1482.5,514.5,1482.7,514.6,1482.6,514.9
							C1482.6,514.8,1482.6,514.8,1482.6,514.9z M1475.1,515.2c0,0.1-0.1,0.2-0.3,0.3c-1.2,0.2-2.5,0.4-3.7,0.7
							c-0.2,0-0.4-0.1-0.4-0.2c0-0.2,0.1-0.4,0.2-0.4c1.3-0.3,2.5-0.6,3.8-0.7c0.2,0,0.3,0.1,0.4,0.3
							C1475.1,515.2,1475.1,515.2,1475.1,515.2z M1467.7,517c0,0.1-0.1,0.2-0.2,0.2c-1.2,0.4-2.4,0.8-3.5,1.3
							c-0.2,0.1-0.4,0-0.4-0.2c-0.1-0.2,0-0.4,0.2-0.4c1.2-0.5,2.4-0.9,3.6-1.3c0.2-0.1,0.4,0,0.4,0.2
							C1467.7,516.9,1467.7,517,1467.7,517z M1452.4,555.7c0,0.1-0.1,0.2-0.1,0.3c0,0.2-0.2,0.3-0.4,0.2c-0.2,0-0.3-0.2-0.2-0.4
							c0.1-0.4,0.2-0.9,0.2-1.3c0.1-0.7,0-1.5-0.1-2.3c0-0.2,0.1-0.4,0.3-0.4c0.2,0,0.4,0.1,0.4,0.3c0.2,0.9,0.2,1.7,0.2,2.5
							C1452.6,554.9,1452.5,555.3,1452.4,555.7z M1460.7,519.9c0,0.1-0.1,0.2-0.2,0.2c-1.1,0.6-2.2,1.2-3.3,1.8
							c-0.2,0.1-0.4,0-0.5-0.1c-0.1-0.2,0-0.4,0.1-0.5c1.1-0.7,2.2-1.3,3.3-1.8c0.2-0.1,0.4,0,0.4,0.1
							C1460.7,519.8,1460.7,519.8,1460.7,519.9z M1450.4,559.1c0,0.1-0.1,0.1-0.1,0.2c-0.5,0.4-1.1,0.8-1.7,1
							c-0.6,0.2-1.3,0.3-2.1,0.3c-0.2,0-0.3-0.2-0.3-0.3c0-0.2,0.2-0.3,0.3-0.3c0.6,0,1.2-0.1,1.8-0.3c0.5-0.2,1-0.5,1.5-0.9
							c0.1-0.1,0.3-0.1,0.5,0C1450.4,558.9,1450.4,559,1450.4,559.1z M1451.2,548.6c0,0.1-0.1,0.2-0.2,0.2c-0.2,0.1-0.4,0-0.4-0.1
							c-0.1-0.2-0.2-0.5-0.4-0.7c-0.5-0.8-1-1.7-1.6-2.5c-0.1-0.1-0.1-0.4,0.1-0.5c0.1-0.1,0.4-0.1,0.5,0.1c0.6,0.8,1.2,1.7,1.7,2.6
							c0.1,0.2,0.3,0.5,0.4,0.7C1451.2,548.5,1451.2,548.6,1451.2,548.6z M1454.2,523.8c0,0.1-0.1,0.1-0.1,0.2c-1,0.7-2,1.5-3,2.3
							c-0.1,0.1-0.3,0.1-0.5,0c-0.1-0.1-0.1-0.3,0-0.5c1-0.8,2-1.6,3-2.3c0.1-0.1,0.4-0.1,0.5,0.1
							C1454.2,523.6,1454.2,523.7,1454.2,523.8z M1443.4,559.1c0,0,0,0.1-0.1,0.1c-0.1,0.1-0.3,0.2-0.5,0.1c-0.4-0.3-0.8-0.6-1.2-1
							c-0.5-0.6-1-1.2-1.4-2c-0.1-0.2,0-0.4,0.1-0.4c0.2-0.1,0.4,0,0.4,0.1c0.4,0.7,0.8,1.3,1.3,1.8c0.3,0.3,0.7,0.7,1.1,0.9
							C1443.4,558.9,1443.4,559,1443.4,559.1z M1446.6,542.6c0,0.1,0,0.1-0.1,0.1c-0.1,0.1-0.3,0.1-0.5,0c-0.9-0.8-1.9-1.6-3-2.3
							c-0.2-0.1-0.2-0.3-0.1-0.5c0.1-0.2,0.3-0.2,0.5-0.1c1.1,0.7,2.1,1.5,3,2.3C1446.6,542.4,1446.6,542.5,1446.6,542.6z
							 M1448.4,528.7c0,0.1,0,0.1-0.1,0.2c-0.9,0.9-1.7,1.8-2.5,2.8c-0.1,0.1-0.3,0.2-0.5,0.1c-0.1-0.1-0.2-0.3-0.1-0.5
							c0.8-1,1.7-1.9,2.6-2.8c0.1-0.1,0.3-0.1,0.5,0C1448.4,528.5,1448.4,528.6,1448.4,528.7z M1439.7,552.7c0,0.1-0.1,0.2-0.3,0.2
							c-0.2,0-0.4-0.1-0.4-0.3c-0.1-0.4-0.1-0.8-0.2-1.1c-0.1-0.9-0.2-1.8-0.2-2.7c0-0.2,0.1-0.3,0.3-0.3c0.2,0,0.3,0.1,0.3,0.3
							c0,0.9,0.1,1.7,0.2,2.6c0.1,0.4,0.1,0.7,0.2,1.1C1439.7,552.6,1439.7,552.6,1439.7,552.7z M1443.6,534.6
							c-0.7,1.2-1.3,2.3-1.9,3.4c-0.1,0.2-0.3,0.2-0.4,0.2c-0.2-0.1-0.2-0.3-0.2-0.4c0.5-1.1,1.2-2.3,1.9-3.4
							c0.1-0.2,0.3-0.2,0.5-0.1C1443.6,534.3,1443.6,534.4,1443.6,534.6z M1439.6,545.1c0,0.2-0.2,0.3-0.4,0.3
							c-0.2,0-0.3-0.2-0.3-0.4c0.1-0.7,0.2-1.4,0.4-2.1c0.1-0.5,0.3-1.1,0.4-1.6c0.1-0.2,0.2-0.3,0.4-0.2c0.2,0.1,0.3,0.2,0.2,0.4
							c-0.2,0.5-0.3,1.1-0.4,1.7C1439.8,543.8,1439.7,544.4,1439.6,545.1C1439.6,545.1,1439.6,545.1,1439.6,545.1z M1440.2,538.5
							c-0.1,0.2-0.3,0.3-0.5,0.2c-1.1-0.5-2.3-1-3.5-1.3c-0.2-0.1-0.3-0.2-0.2-0.4c0.1-0.2,0.2-0.3,0.4-0.2c1.2,0.4,2.4,0.8,3.6,1.3
							C1440.2,538.2,1440.3,538.4,1440.2,538.5z M1433,536.4c0,0.2-0.2,0.3-0.4,0.3c-1.2-0.2-2.5-0.3-3.7-0.3
							c-0.2,0-0.3-0.2-0.3-0.3c0-0.2,0.2-0.3,0.3-0.3c1.3,0,2.6,0.1,3.8,0.3C1432.9,536,1433,536.2,1433,536.4
							C1433,536.3,1433,536.4,1433,536.4z M1425.4,536.3c0,0.1-0.1,0.2-0.3,0.3c-1.3,0.2-2.5,0.4-3.7,0.7c-0.2,0-0.4-0.1-0.4-0.2
							c-0.1-0.2,0-0.4,0.2-0.4c1.2-0.3,2.5-0.6,3.8-0.8c0.2,0,0.3,0.1,0.4,0.3C1425.4,536.2,1425.4,536.2,1425.4,536.3z
							 M1418.1,538.3c0,0.1-0.1,0.2-0.2,0.2c-1.1,0.5-2.3,1.1-3.3,1.7c-0.2,0.1-0.4,0-0.5-0.1c-0.1-0.2,0-0.4,0.1-0.5
							c1.1-0.7,2.3-1.2,3.4-1.7c0.2-0.1,0.4,0,0.4,0.2C1418.1,538.1,1418.1,538.2,1418.1,538.3z M1411.6,542.1
							c0,0.1-0.1,0.1-0.1,0.2c-1,0.8-2,1.6-2.9,2.4c-0.1,0.1-0.3,0.1-0.5,0c-0.1-0.1-0.1-0.3,0-0.5c0.9-0.9,1.9-1.7,2.9-2.5
							c0.1-0.1,0.4-0.1,0.5,0.1C1411.6,541.9,1411.6,542,1411.6,542.1z M1399,594.2c0,0.1-0.1,0.2-0.2,0.2c-0.2,0-0.4-0.1-0.4-0.2
							c-0.3-1.2-0.6-2.4-0.9-3.7c0-0.2,0.1-0.4,0.2-0.4c0.2,0,0.4,0.1,0.4,0.2c0.3,1.2,0.6,2.5,0.9,3.7
							C1399,594.1,1399,594.1,1399,594.2z M1397.4,586.8c0,0.1-0.1,0.2-0.3,0.2c-0.2,0-0.4-0.1-0.4-0.3c-0.2-1.3-0.4-2.5-0.5-3.8
							c0-0.2,0.1-0.3,0.3-0.4c0.2,0,0.3,0.1,0.4,0.3c0.1,1.2,0.3,2.5,0.5,3.7C1397.4,586.7,1397.4,586.7,1397.4,586.8z
							 M1406.1,547.4c0,0,0,0.1-0.1,0.1c-0.8,1-1.6,2-2.3,3c-0.1,0.1-0.3,0.2-0.5,0.1c-0.1-0.1-0.2-0.3-0.1-0.5c0.7-1,1.5-2.1,2.3-3
							c0.1-0.1,0.3-0.2,0.5,0C1406.1,547.1,1406.1,547.2,1406.1,547.4z M1396.5,579.3c0,0.1-0.2,0.2-0.3,0.3c-0.2,0-0.3-0.1-0.3-0.3
							c-0.1-1.3-0.1-2.6-0.1-3.8c0-0.2,0.2-0.3,0.3-0.3c0.2,0,0.3,0.2,0.3,0.3C1396.4,576.6,1396.4,577.9,1396.5,579.3
							C1396.5,579.2,1396.5,579.2,1396.5,579.3z M1401.8,553.6c-0.6,1.2-1.2,2.3-1.7,3.5c-0.1,0.2-0.3,0.2-0.4,0.2
							c-0.2-0.1-0.3-0.3-0.2-0.4c0.5-1.2,1.1-2.3,1.7-3.4c0.1-0.2,0.3-0.2,0.4-0.1C1401.8,553.3,1401.8,553.4,1401.8,553.6z
							 M1396.6,571.7c0,0.2-0.2,0.3-0.3,0.3c-0.2,0-0.3-0.2-0.3-0.4c0.1-1.3,0.2-2.6,0.4-3.8c0-0.2,0.2-0.3,0.4-0.3
							c0.2,0,0.3,0.2,0.3,0.4C1396.8,569.1,1396.7,570.4,1396.6,571.7C1396.6,571.6,1396.6,571.7,1396.6,571.7z M1398.7,560.5
							c0,0-0.1,0.2-0.1,0.2c-0.4,1.1-0.7,2.3-1,3.4c0,0.2-0.2,0.3-0.4,0.2c-0.2,0-0.3-0.2-0.2-0.4c0.3-1.2,0.6-2.3,1-3.5l0.1-0.2
							c0.1-0.2,0.2-0.3,0.4-0.2C1398.7,560.2,1398.8,560.4,1398.7,560.5z"/>
					</g>
				</g>
			</g>
		</g>
	</g>
	<g>
		<g>
			<path d="M235.2,547.4c-0.4-0.2-0.7-0.4-1.1-0.7c0,0,0,0,0-0.1L235.2,547.4z"/>
		</g>
		<path class="st61" d="M330.6,600.3h-41.1v30.1c0,0.9-0.7,1.6-1.7,1.6c-0.9,0-1.7-0.7-1.7-1.6v-30.1H245l17-29.2l-10-7.6l13.7-23.6
			l-7.4-7.7l29.4-39.3l29.3,39.3l-7.4,7.7l13.7,23.6l-10,7.6L330.6,600.3z"/>
		<path class="st123" d="M271.2,578.6c0,10.6-9.2,19.2-20.5,19.2h-16.2v51.8c0,0.6-0.5,1.1-1.1,1.1c-0.6,0-1.1-0.5-1.1-1.1v-51.8
			h-17c-11.3,0-20.5-8.6-20.5-19.2c0-7.1,4.1-13.5,10.7-16.9c1.6-9.3,10.1-16.2,20.2-16.2c9.4,0,17.6,6,19.8,14.5
			c1.7-0.4,3.4-0.6,5.2-0.6C262,559.3,271.2,568,271.2,578.6z"/>
		<g>
			<path class="st61" d="M353.7,619.4v29.7c0,0.9-0.7,1.6-1.7,1.6c-0.9,0-1.7-0.7-1.7-1.6v-29.7H353.7z"/>
			<path class="st61" d="M377.8,582.7c0,21.3-10.1,36.8-24.1,36.9l0-14.8l13.2-25.8c0.4-0.8,0.1-1.8-0.7-2.2
				c-0.8-0.4-1.8-0.1-2.2,0.7l-10.3,20.1l-0.1-42.4c0-0.9-0.7-1.6-1.6-1.6c-0.5,0-0.9,0.2-1.2,0.5c-0.3,0.3-0.5,0.7-0.5,1.2
				l0.1,41.9l-10.1-19.6c-0.4-0.8-1.4-1.1-2.2-0.7s-1.1,1.4-0.7,2.2l13,25.3l0,15c-13.4-2.2-23.9-17.8-23.9-36.7
				c0-18.7,21-43.4,26.3-49.4C358,539.4,377.8,564,377.8,582.7z"/>
		</g>
		<g>
			<path class="st123" d="M331,635.1c0,8.6-7.4,15.7-16.5,15.7h-27.3c-9.1,0-16.5-7-16.5-15.7c0-8.6,7.4-15.7,16.5-15.7
				c1.2,0,2.3,0.1,3.5,0.4c2.1-6.5,8.4-11.1,15.8-11.1c8,0,14.8,5.5,16.2,12.8C327.8,624.3,331,629.4,331,635.1z"/>
		</g>
		<g>
			<path class="st61" d="M292.2,640.5c0,5.6-4.8,10.2-10.8,10.2h-17.8c-5.9,0-10.8-4.6-10.8-10.2c0-5.6,4.8-10.2,10.8-10.2
				c0.8,0,1.5,0.1,2.3,0.2c1.4-4.3,5.5-7.3,10.3-7.3c5.2,0,9.7,3.6,10.6,8.4C290.2,633.4,292.2,636.8,292.2,640.5z"/>
		</g>
	</g>
	<g>
		<g>
			<path class="st127" d="M709.5,586.8l7.2-0.8c0-5.4-5.4-8.1-8.1-9.1c-0.9-4.6-2.6-9-4.8-13l5.8-4.3c-2.7-4.7-8.8-4.3-11.6-3.8
				c-3.1-3.4-6.6-6.4-10.6-8.8l2.9-6.7c-4.7-2.7-9.7,0.6-12,2.5c-4.3-1.4-8.8-2.3-13.6-2.3l-0.8-7.2c-5.4,0-8.1,5.4-9.1,8.1
				c-4.6,0.9-9,2.6-13,4.8l-4.3-5.8c-4.7,2.7-4.3,8.8-3.8,11.6c-3.4,3.1-6.4,6.6-8.8,10.6l-6.7-2.9c-2.7,4.7,0.6,9.7,2.5,12
				c-1.4,4.3-2.3,8.8-2.3,13.6l-7.2,0.8c0,5.4,5.4,8.1,8.1,9.1c0.9,4.6,2.6,9,4.8,13l-5.8,4.3c2.7,4.7,8.8,4.3,11.6,3.8
				c3.1,3.4,6.6,6.4,10.6,8.8l-2.9,6.7c4.7,2.7,9.7-0.6,12-2.5c4.3,1.4,8.8,2.2,13.6,2.3l0.8,7.2c5.4,0,8.1-5.4,9.1-8.1
				c4.6-0.9,9-2.6,13-4.8l4.3,5.8c4.7-2.7,4.3-8.8,3.8-11.6c3.4-3.1,6.4-6.6,8.8-10.6l6.7,2.9c2.7-4.7-0.6-9.7-2.5-12
				C708.6,596.1,709.4,591.6,709.5,586.8z M692.8,590.8c-2.6,0-4.8-2.2-4.8-4.8c0-2.6,2.2-4.8,4.8-4.8s4.8,2.2,4.8,4.8
				C697.6,588.7,695.4,590.8,692.8,590.8z M630.5,586c0-2.6,2.2-4.8,4.8-4.8s4.8,2.2,4.8,4.8c0,2.6-2.2,4.8-4.8,4.8
				S630.5,588.7,630.5,586z M654.5,586c0-5.3,4.3-9.6,9.6-9.6c5.3,0,9.6,4.3,9.6,9.6c0,5.3-4.3,9.6-9.6,9.6
				C658.8,595.6,654.5,591.3,654.5,586z"/>
			<path class="st127" d="M664,545.3c-22.5,0-40.7,18.2-40.7,40.7c0,22.5,18.2,40.7,40.7,40.7c22.5,0,40.7-18.2,40.7-40.7
				C704.8,563.5,686.5,545.3,664,545.3z M635.3,590.8c-2.6,0-4.8-2.2-4.8-4.8c0-2.6,2.2-4.8,4.8-4.8s4.8,2.2,4.8,4.8
				C640.1,588.7,637.9,590.8,635.3,590.8z M664,595.6c-5.3,0-9.6-4.3-9.6-9.6c0-5.3,4.3-9.6,9.6-9.6c5.3,0,9.6,4.3,9.6,9.6
				C673.6,591.3,669.3,595.6,664,595.6z M692.8,590.8c-2.6,0-4.8-2.2-4.8-4.8c0-2.6,2.2-4.8,4.8-4.8s4.8,2.2,4.8,4.8
				C697.6,588.7,695.4,590.8,692.8,590.8z"/>
			<g>
				<path class="st127" d="M664,545.3v31.1c-5.3,0-9.6,4.3-9.6,9.6h-14.4c0-2.6-2.2-4.8-4.8-4.8s-4.8,2.2-4.8,4.8h-7.2
					C623.3,563.5,641.6,545.3,664,545.3z"/>
				<path class="st127" d="M704.8,586c0,22.5-18.2,40.7-40.7,40.7v-31.1c5.3,0,9.6-4.3,9.6-9.6H688c0,2.6,2.2,4.8,4.8,4.8
					s4.8-2.2,4.8-4.8H704.8z"/>
			</g>
		</g>
		<g>
			<path class="st128" d="M708.7,585.9l51.8-26.1c0,0-2.2,10.9-13,17.4c-5.9,3.5-12.2,7.5-15.1,10.9c-2.8,3.3-8.6,8.7-15.1,8.7
				L708.7,585.9z"/>
			<path class="st128" d="M750.7,604.2H726v-4.9l-13.2-14.8c-4.2-4.7-10.2-7.4-16.4-7.4h-22.2v64.2H768v-19.7
				C768,611.9,760.2,604.2,750.7,604.2z M755,622.4l-0.5,1c-2.5,4.9-7.5,7.9-13.1,7.9h-26.9c-4.3,0-7.2-4.5-5.2-8.3l0.5-1
				c2.5-4.9,7.5-7.9,13.1-7.9h26.9C754.1,614.1,756.9,618.6,755,622.4z"/>
			<path class="st128" d="M749.8,614.1h-11.4l0,0c0,2.7,2.2,4.9,4.9,4.9h6.5c0.4,0,0.7,0.2,0.8,0.4c0.2,0.4,0.1,0.6,0,0.7l-0.5,1
				c-1.6,3.2-5,5.3-8.6,5.3h-0.6c-2.7,0-4.9,2.2-4.9,4.9l0,0h5.6c5.5,0,10.6-3.1,13.1-7.9l0.5-1
				C756.9,618.6,754.1,614.1,749.8,614.1z"/>
			<path class="st128" d="M696.4,594.3c0-2.7,2.2-4.9,4.9-4.9c2.7,0,4.9,2.2,4.9,4.9c0,2.7-2.2,4.9-4.9,4.9
				C698.6,599.3,696.4,597.1,696.4,594.3z"/>
			<path class="st128" d="M696.4,562.3h-17.3c-1.4,0-2.5-1.1-2.5-2.5c0-1.4,1.1-2.5,2.5-2.5h17.3c1.4,0,2.5,1.1,2.5,2.5
				C698.9,561.2,697.8,562.3,696.4,562.3z"/>
			<path class="st127" d="M701.3,569.7h-27.1v71.6h27.1v-14.8h-9.9v7.4h-12.3V619c0,0,0-9.9,9.9-9.9v-17.3c0,0,0-9.9,12.3-9.9V569.7
				z"/>
			<path class="st128" d="M681.6,559.8h12.3l0,0v12.3l0,0h-12.3l0,0V559.8L681.6,559.8z"/>
		</g>
	</g>
	<g>
		<rect x="1849.1" y="532" class="st61" width="90.8" height="110.8"/>
		<rect x="1855.6" y="537.9" class="st123" width="77.7" height="29.1"/>
		<rect x="1855.6" y="572.7" class="st123" width="77.7" height="29.1"/>
		<rect x="1855.6" y="607.5" class="st123" width="77.7" height="29.1"/>
		<path class="st123" d="M1897.5,552.5c0,1.7-1.4,3-3,3c-1.7,0-3-1.4-3-3c0-1.7,1.4-3,3-3C1896.1,549.4,1897.5,550.8,1897.5,552.5z"
			/>
		<path class="st123" d="M1897.5,587.4c0,1.7-1.4,3-3,3c-1.7,0-3-1.4-3-3c0-1.7,1.4-3,3-3C1896.1,584.3,1897.5,585.7,1897.5,587.4z"
			/>
		<path class="st123" d="M1897.5,622.3c0,1.7-1.4,3-3,3c-1.7,0-3-1.4-3-3c0-1.7,1.4-3,3-3C1896.1,619.2,1897.5,620.6,1897.5,622.3z"
			/>
	</g>
	<g>
		<polygon class="st61" points="1135.4,624.9 1135.4,598 1132.6,598 1129.3,613.1 1129.3,624.9 		"/>
		<rect x="1007.1" y="555.6" class="st61" width="121.3" height="66"/>
		<g>
			<polygon class="st61" points="1185.8,626.4 1133.7,625.3 1133.7,570 1171.8,568.2 1185.8,596.8 			"/>
			<polygon class="st123" points="1159.4,575.8 1167.3,575.8 1169.5,580.6 1164.6,594.9 1152,594.9 			"/>
		</g>
		<path class="st123" d="M1186.2,597.9v27.8c-3.8-1.1-3.4-2-3.4-2v-26.1l-13.1-27.6h-36.1v-2h38.2L1186.2,597.9z"/>
		<g>
			<polygon class="st61" points="1010.4,627.1 1188.7,627.1 1188.7,621.6 1115.2,621.6 1014.5,621.6 1007.1,621.6 			"/>
		</g>
		<g>
			<g>
				<path class="st123" d="M1140.3,623.6c0-7.8,6.3-14.1,14.1-14.1c7.8,0,14.1,6.3,14.1,14.1c0,7.8-6.3,14.1-14.1,14.1
					C1146.6,637.7,1140.3,631.4,1140.3,623.6z"/>
				<path class="st0" d="M1154.4,631.8c4.5,0,8.1-3.7,8.1-8.1c0-4.5-3.7-8.1-8.1-8.1c-4.5,0-8.1,3.7-8.1,8.1
					C1146.3,628.1,1149.9,631.8,1154.4,631.8z"/>
			</g>
			<g>
				<path class="st61" d="M1148.1,623.6c0-3.4,2.8-6.1,6.2-6.1c3.4,0,6.2,2.8,6.2,6.1c0,3.4-2.8,6.2-6.2,6.2
					C1150.9,629.8,1148.1,627,1148.1,623.6z"/>
			</g>
		</g>
		<g>
			<g>
				<path class="st123" d="M1026.3,623.6c0-7.8,6.3-14.1,14.1-14.1c7.8,0,14.1,6.3,14.1,14.1c0,7.8-6.3,14.1-14.1,14.1
					C1032.6,637.7,1026.3,631.4,1026.3,623.6z"/>
				<path class="st0" d="M1040.4,631.8c4.5,0,8.1-3.7,8.1-8.1c0-4.5-3.7-8.1-8.1-8.1c-4.5,0-8.1,3.7-8.1,8.1
					C1032.3,628.1,1035.9,631.8,1040.4,631.8z"/>
			</g>
			<g>
				<path class="st61" d="M1034.1,623.6c0-3.4,2.8-6.1,6.2-6.1c3.4,0,6.2,2.8,6.2,6.1c0,3.4-2.8,6.2-6.2,6.2
					C1036.9,629.8,1034.1,627,1034.1,623.6z"/>
			</g>
		</g>
		<g>
			<rect x="1100" y="615.2" class="st123" width="30.6" height="12.6"/>
		</g>
		<polygon class="st123" points="1140.8,594.9 1175.8,594.9 1167.3,575.8 1140.8,575.8 		"/>
	</g>
	<line class="st142" x1="292.7" y1="698.1" x2="1919" y2="698.1"/>
	<g>
		<circle class="st61" cx="295.4" cy="694.4" r="14.2"/>
		<circle class="st45" cx="295.4" cy="694.4" r="7.4"/>
	</g>
	<g>
		<circle class="st61" cx="697.8" cy="694.4" r="14.2"/>
		<circle class="st45" cx="697.8" cy="694.4" r="7.4"/>
	</g>
	<g>
		<circle class="st61" cx="1100.2" cy="694.4" r="14.2"/>
		<circle class="st45" cx="1100.2" cy="694.4" r="7.4"/>
	</g>
	<g>
		<circle class="st61" cx="1502.6" cy="694.4" r="14.2"/>
		<circle class="st45" cx="1502.6" cy="694.4" r="7.4"/>
	</g>
	<g>
		<circle class="st61" cx="1904.9" cy="694.4" r="14.2"/>
		<circle class="st45" cx="1904.9" cy="694.4" r="7.4"/>
	</g>
</g>
</svg>
