<svg id="Layer_1" data-name="Layer 1" xmlns="http://www.w3.org/2000/svg" viewBox="0 0 1044.91 700.49"><defs><style>.cls-1{fill:#1e363f;stroke:#000;stroke-miterlimit:10;}.cls-2{fill:#6d6e70;}.cls-3{font-size:18px;font-family:CircularStd-Black, Circular Std;font-weight:800;}.cls-4{letter-spacing:0em;}.cls-5{fill:#ff6058;}.cls-6{fill:#ffbf2f;}.cls-7{fill:#27c93f;}</style></defs><rect class="cls-1" x="862.19" y="644.73" width="132.61" height="37.23"/><path class="cls-2" d="M1051.13,698.33c-.52-.87-2.15-8.53-2.22-10a4,4,0,0,0-.55-2.35c-.22-.2-17.64-4.22-17.64-4.22s-1.08-.46-1.22-1-6-11.81-8.68-14.72-7.91-8-14.67-7.19c0,0-.49,38.48,0,38.48h-5v-5.12H868.88v2.6h1a.46.46,0,0,1,.33,0,1.92,1.92,0,0,1,2,2.09v2.4h3.48a8.32,8.32,0,0,1,14.52,0h3.46a8.32,8.32,0,0,1,14.52,0h7.13l13.54-6.11h37.36V697h-2.19v8.28h2.79a8,8,0,0,1-.24-2,8.31,8.31,0,0,1,16.62,0,8,8,0,0,1-.24,2h2.15a8,8,0,0,1-.24-2,8.32,8.32,0,0,1,16.63,0,8,8,0,0,1-.24,2h28.58a8.5,8.5,0,0,1-.23-2,8.31,8.31,0,0,1,16.61,0,8,8,0,0,1-.24,2h6.64v-5.38A6.89,6.89,0,0,1,1051.13,698.33ZM1023,681.47a2.26,2.26,0,0,1-.52,0c-.15,0-8.72-.59-10.85-.66s-2.23-1.44-2.26-1.65a1.52,1.52,0,0,1,0-.35s0-4.7,0-6,1.47-1.19,1.77-1.19h.5l6,.51a8.16,8.16,0,0,1,1.11.23,9.07,9.07,0,0,1,3,1.24,3.11,3.11,0,0,1,.41.6s1.46,5.49,1.58,6.29A.9.9,0,0,1,1023,681.47Z" transform="translate(-7.74 -10.22)"/><path class="cls-2" d="M975,696a7.38,7.38,0,1,0,7.38,7.38A7.37,7.37,0,0,0,975,696Zm0,11.34a4.21,4.21,0,1,1,4.21-4.21A4.21,4.21,0,0,1,975,707.29Z" transform="translate(-7.74 -10.22)"/><path class="cls-2" d="M900.89,696a7.38,7.38,0,1,0,7.38,7.38A7.38,7.38,0,0,0,900.89,696Zm0,11.34a4.21,4.21,0,1,1,4.2-4.21A4.21,4.21,0,0,1,900.89,707.29Z" transform="translate(-7.74 -10.22)"/><path class="cls-2" d="M882.87,696a7.38,7.38,0,1,0,7.38,7.38A7.38,7.38,0,0,0,882.87,696Zm0,11.34a4.21,4.21,0,1,1,4.21-4.21A4.21,4.21,0,0,1,882.87,707.29Z" transform="translate(-7.74 -10.22)"/><path class="cls-2" d="M993.27,696a7.38,7.38,0,1,0,7.38,7.38A7.37,7.37,0,0,0,993.27,696Zm0,11.34a4.21,4.21,0,1,1,4.22-4.21A4.21,4.21,0,0,1,993.27,707.29Z" transform="translate(-7.74 -10.22)"/><path class="cls-2" d="M1037.85,696a7.38,7.38,0,1,0,7.37,7.38A7.38,7.38,0,0,0,1037.85,696Zm0,11.34a4.21,4.21,0,1,1,4.21-4.21A4.22,4.22,0,0,1,1037.85,707.29Z" transform="translate(-7.74 -10.22)"/><rect class="cls-1" x="862.19" y="644.73" width="132.61" height="37.23"/><path class="cls-2" d="M1051.13,698.33c-.52-.87-2.15-8.53-2.22-10a4,4,0,0,0-.55-2.35c-.22-.2-17.64-4.22-17.64-4.22s-1.08-.46-1.22-1-6-11.81-8.68-14.72-7.91-8-14.67-7.19c0,0-.49,38.48,0,38.48h-5v-5.12H868.88v2.6h1a.46.46,0,0,1,.33,0,1.92,1.92,0,0,1,2,2.09v2.4h3.48a8.32,8.32,0,0,1,14.52,0h3.46a8.32,8.32,0,0,1,14.52,0h7.13l13.54-6.11h37.36V697h-2.19v8.28h2.79a8,8,0,0,1-.24-2,8.31,8.31,0,0,1,16.62,0,8,8,0,0,1-.24,2h2.15a8,8,0,0,1-.24-2,8.32,8.32,0,0,1,16.63,0,8,8,0,0,1-.24,2h28.58a8.5,8.5,0,0,1-.23-2,8.31,8.31,0,0,1,16.61,0,8,8,0,0,1-.24,2h6.64v-5.38A6.89,6.89,0,0,1,1051.13,698.33ZM1023,681.47a2.26,2.26,0,0,1-.52,0c-.15,0-8.72-.59-10.85-.66s-2.23-1.44-2.26-1.65a1.52,1.52,0,0,1,0-.35s0-4.7,0-6,1.47-1.19,1.77-1.19h.5l6,.51a8.16,8.16,0,0,1,1.11.23,9.07,9.07,0,0,1,3,1.24,3.11,3.11,0,0,1,.41.6s1.46,5.49,1.58,6.29A.9.9,0,0,1,1023,681.47Z" transform="translate(-7.74 -10.22)"/><path class="cls-2" d="M975,696a7.38,7.38,0,1,0,7.38,7.38A7.37,7.37,0,0,0,975,696Zm0,11.34a4.21,4.21,0,1,1,4.21-4.21A4.21,4.21,0,0,1,975,707.29Z" transform="translate(-7.74 -10.22)"/><path class="cls-2" d="M900.89,696a7.38,7.38,0,1,0,7.38,7.38A7.38,7.38,0,0,0,900.89,696Zm0,11.34a4.21,4.21,0,1,1,4.2-4.21A4.21,4.21,0,0,1,900.89,707.29Z" transform="translate(-7.74 -10.22)"/><path class="cls-2" d="M882.87,696a7.38,7.38,0,1,0,7.38,7.38A7.38,7.38,0,0,0,882.87,696Zm0,11.34a4.21,4.21,0,1,1,4.21-4.21A4.21,4.21,0,0,1,882.87,707.29Z" transform="translate(-7.74 -10.22)"/><path class="cls-2" d="M993.27,696a7.38,7.38,0,1,0,7.38,7.38A7.37,7.37,0,0,0,993.27,696Zm0,11.34a4.21,4.21,0,1,1,4.22-4.21A4.21,4.21,0,0,1,993.27,707.29Z" transform="translate(-7.74 -10.22)"/><path class="cls-2" d="M1037.85,696a7.38,7.38,0,1,0,7.37,7.38A7.38,7.38,0,0,0,1037.85,696Zm0,11.34a4.21,4.21,0,1,1,4.21-4.21A4.22,4.22,0,0,1,1037.85,707.29Z" transform="translate(-7.74 -10.22)"/><text class="cls-3" transform="translate(0 37.74)"><tspan class="cls-4">B</tspan><tspan x="11.07" y="0">uy</tspan></text><circle class="cls-5" cx="5.56" cy="3.13" r="3.13"/><circle class="cls-6" cx="16.1" cy="3.13" r="3.13"/><circle class="cls-7" cx="26.64" cy="3.13" r="3.13"/></svg>