<svg xmlns="http://www.w3.org/2000/svg" xmlns:xlink="http://www.w3.org/1999/xlink" viewBox="0 0 1664.79 1015.94"><defs><style>.cls-1,.cls-10,.cls-11,.cls-40,.cls-41,.cls-43,.cls-44,.cls-45,.cls-46,.cls-47,.cls-48,.cls-8,.cls-9{fill:none;}.cls-15,.cls-2{fill:#5876b9;}.cls-17,.cls-23,.cls-3{fill:#6d6e70;}.cls-28,.cls-4{fill:#2d3392;}.cls-5{isolation:isolate;}.cls-6{fill:#fffce6;}.cls-13,.cls-15,.cls-17,.cls-18,.cls-20,.cls-22,.cls-26,.cls-28,.cls-29,.cls-30,.cls-39,.cls-6{stroke:#000;}.cls-10,.cls-11,.cls-13,.cls-15,.cls-17,.cls-18,.cls-20,.cls-22,.cls-26,.cls-28,.cls-29,.cls-30,.cls-31,.cls-39,.cls-40,.cls-41,.cls-43,.cls-44,.cls-45,.cls-46,.cls-47,.cls-48,.cls-6,.cls-8,.cls-9{stroke-miterlimit:10;}.cls-13,.cls-7{fill:#d6daf8;}.cls-10,.cls-11,.cls-40,.cls-41,.cls-43,.cls-44,.cls-45,.cls-46,.cls-47,.cls-48,.cls-8,.cls-9{stroke:#5876b9;}.cls-8{stroke-width:4px;}.cls-11,.cls-9{stroke-width:2px;}.cls-10{stroke-width:4.09px;}.cls-11{stroke-linecap:round;}.cls-12{fill:url(#_10_dpi_20_);}.cls-14{fill:url(#_10_dpi_20_5);}.cls-16{fill:url(#_10_dpi_20_3-2);}.cls-17,.cls-18,.cls-23{mix-blend-mode:multiply;}.cls-18{fill:url(#_10_dpi_20_2-2);}.cls-19{fill:#f0cd97;}.cls-20{fill:#90a6df;}.cls-21{fill:url(#_10_dpi_20_7);}.cls-22,.cls-24{fill:#4faa80;}.cls-25,.cls-29{fill:#006838;}.cls-26{fill:#b0d13f;}.cls-27{fill:url(#_10_dpi_20_11);}.cls-30,.cls-34{fill:#f79653;}.cls-31{fill:#050505;stroke:#6d6e70;}.cls-32{fill:#be1e2d;}.cls-33,.cls-39{fill:#1e363f;}.cls-35{fill:#ef4136;}.cls-36{fill:#1a6964;}.cls-37{fill:#ba2e2d;}.cls-38{fill:#842a26;}.cls-40,.cls-41,.cls-43,.cls-44,.cls-45,.cls-46,.cls-47,.cls-48{stroke-linecap:square;stroke-width:5px;}.cls-41{stroke-dasharray:12.44 24.88;}.cls-42{fill:#fff;}.cls-43{stroke-dasharray:12.22 24.45;}.cls-44{stroke-dasharray:11.78 23.57;}.cls-45{stroke-dasharray:12 24;}.cls-46{stroke-dasharray:11.95 23.89;}.cls-47{stroke-dasharray:11.83 23.67;}.cls-48{stroke-dasharray:12.3 24.59;}</style><pattern id="_10_dpi_20_" data-name="10 dpi 20%" width="28.8" height="28.8" patternTransform="translate(-136.91 -43.68)" patternUnits="userSpaceOnUse" viewBox="0 0 28.8 28.8"><rect class="cls-1" width="28.8" height="28.8"/><path class="cls-2" d="M3.69,30.15a1.44,1.44,0,1,0-1.44-1.44A1.44,1.44,0,0,0,3.69,30.15Z"/><path class="cls-2" d="M18.09,30.15a1.44,1.44,0,1,0-1.44-1.44A1.44,1.44,0,0,0,18.09,30.15Z"/><path class="cls-2" d="M28.71,19.53a1.44,1.44,0,1,0-1.44-1.44A1.44,1.44,0,0,0,28.71,19.53Z"/><path class="cls-2" d="M28.71,5.13a1.44,1.44,0,1,0-1.44-1.44A1.44,1.44,0,0,0,28.71,5.13Z"/><path class="cls-2" d="M28.89,26.55a1.44,1.44,0,1,0-1.44-1.44A1.44,1.44,0,0,0,28.89,26.55Z"/><path class="cls-2" d="M14.49,26.55a1.44,1.44,0,1,0-1.44-1.44A1.44,1.44,0,0,0,14.49,26.55Z"/><path class="cls-2" d="M28.89,12.15a1.44,1.44,0,1,0-1.44-1.44A1.44,1.44,0,0,0,28.89,12.15Z"/><path class="cls-2" d="M14.49,12.15a1.44,1.44,0,1,0-1.44-1.44A1.44,1.44,0,0,0,14.49,12.15Z"/><path class="cls-2" d="M7.29,19.35a1.44,1.44,0,1,0-1.44-1.44A1.44,1.44,0,0,0,7.29,19.35Z"/><path class="cls-2" d="M21.69,19.35a1.44,1.44,0,1,0-1.44-1.44A1.44,1.44,0,0,0,21.69,19.35Z"/><path class="cls-2" d="M7.29,5A1.44,1.44,0,1,0,5.85,3.51,1.44,1.44,0,0,0,7.29,5Z"/><path class="cls-2" d="M21.69,5a1.44,1.44,0,1,0-1.44-1.44A1.44,1.44,0,0,0,21.69,5Z"/><path class="cls-2" d="M25.29,23a1.44,1.44,0,1,0-1.44-1.44A1.43,1.43,0,0,0,25.29,23Z"/><path class="cls-2" d="M10.89,23a1.44,1.44,0,1,0-1.44-1.44A1.44,1.44,0,0,0,10.89,23Z"/><path class="cls-2" d="M25.29,8.55a1.44,1.44,0,1,0-1.44-1.44A1.43,1.43,0,0,0,25.29,8.55Z"/><path class="cls-2" d="M10.89,8.55A1.44,1.44,0,1,0,9.45,7.11,1.44,1.44,0,0,0,10.89,8.55Z"/><path class="cls-2" d="M3.69,15.75a1.44,1.44,0,1,0-1.44-1.44A1.44,1.44,0,0,0,3.69,15.75Z"/><path class="cls-2" d="M18.09,15.75a1.44,1.44,0,1,0-1.44-1.44A1.44,1.44,0,0,0,18.09,15.75Z"/><path class="cls-2" d="M3.69,1.35A1.44,1.44,0,0,0,5.13-.09,1.45,1.45,0,0,0,3.69-1.53,1.44,1.44,0,0,0,2.25-.09,1.43,1.43,0,0,0,3.69,1.35Z"/><path class="cls-2" d="M18.09,1.35A1.44,1.44,0,0,0,19.53-.09a1.45,1.45,0,0,0-1.44-1.44A1.44,1.44,0,0,0,16.65-.09,1.43,1.43,0,0,0,18.09,1.35Z"/><path class="cls-2" d="M25.11,30.33a1.44,1.44,0,1,0-1.44-1.44A1.43,1.43,0,0,0,25.11,30.33Z"/><path class="cls-2" d="M10.71,30.33a1.44,1.44,0,1,0-1.44-1.44A1.44,1.44,0,0,0,10.71,30.33Z"/><path class="cls-2" d="M25.11,15.93a1.44,1.44,0,1,0-1.44-1.44A1.43,1.43,0,0,0,25.11,15.93Z"/><path class="cls-2" d="M10.71,15.93a1.44,1.44,0,1,0-1.44-1.44A1.44,1.44,0,0,0,10.71,15.93Z"/><path class="cls-2" d="M3.51,23.13a1.44,1.44,0,1,0-1.44-1.44A1.44,1.44,0,0,0,3.51,23.13Z"/><path class="cls-2" d="M17.91,23.13a1.44,1.44,0,1,0-1.44-1.44A1.43,1.43,0,0,0,17.91,23.13Z"/><path class="cls-2" d="M3.51,8.73A1.44,1.44,0,1,0,2.07,7.29,1.44,1.44,0,0,0,3.51,8.73Z"/><path class="cls-2" d="M17.91,8.73a1.44,1.44,0,1,0-1.44-1.44A1.43,1.43,0,0,0,17.91,8.73Z"/><path class="cls-2" d="M21.51,26.73a1.44,1.44,0,1,0-1.44-1.44A1.43,1.43,0,0,0,21.51,26.73Z"/><path class="cls-2" d="M7.11,26.73a1.44,1.44,0,1,0-1.44-1.44A1.43,1.43,0,0,0,7.11,26.73Z"/><path class="cls-2" d="M21.51,12.33a1.44,1.44,0,1,0-1.44-1.44A1.43,1.43,0,0,0,21.51,12.33Z"/><path class="cls-2" d="M7.11,12.33a1.44,1.44,0,1,0-1.44-1.44A1.43,1.43,0,0,0,7.11,12.33Z"/><path class="cls-2" d="M-.09,19.53a1.44,1.44,0,0,0,1.44-1.44A1.45,1.45,0,0,0-.09,16.65a1.44,1.44,0,0,0-1.44,1.44A1.43,1.43,0,0,0-.09,19.53Z"/><path class="cls-2" d="M14.31,19.53a1.44,1.44,0,1,0-1.44-1.44A1.43,1.43,0,0,0,14.31,19.53Z"/><path class="cls-2" d="M-.09,5.13A1.44,1.44,0,0,0,1.35,3.69,1.44,1.44,0,0,0-.09,2.25,1.43,1.43,0,0,0-1.53,3.69,1.43,1.43,0,0,0-.09,5.13Z"/><path class="cls-2" d="M14.31,5.13a1.44,1.44,0,1,0-1.44-1.44A1.43,1.43,0,0,0,14.31,5.13Z"/><path class="cls-2" d="M.09,26.55a1.43,1.43,0,0,0,1.44-1.44,1.44,1.44,0,0,0-2.88,0A1.43,1.43,0,0,0,.09,26.55Z"/><path class="cls-2" d="M.09,12.15a1.43,1.43,0,0,0,1.44-1.44,1.44,1.44,0,1,0-2.88,0A1.43,1.43,0,0,0,.09,12.15Z"/><path class="cls-2" d="M25.11,1.53A1.43,1.43,0,0,0,26.55.09a1.44,1.44,0,0,0-2.88,0A1.43,1.43,0,0,0,25.11,1.53Z"/><path class="cls-2" d="M10.71,1.53A1.44,1.44,0,0,0,12.15.09a1.45,1.45,0,0,0-1.44-1.44A1.44,1.44,0,0,0,9.27.09,1.43,1.43,0,0,0,10.71,1.53Z"/></pattern><pattern id="_10_dpi_20_5" data-name="10 dpi 20%" width="28.8" height="28.8" patternTransform="translate(-125.63 -34.31)" patternUnits="userSpaceOnUse" viewBox="0 0 28.8 28.8"><rect class="cls-1" width="28.8" height="28.8"/><path class="cls-2" d="M3.69,30.15a1.44,1.44,0,1,0-1.44-1.44A1.44,1.44,0,0,0,3.69,30.15Z"/><path class="cls-2" d="M18.09,30.15a1.44,1.44,0,1,0-1.44-1.44A1.44,1.44,0,0,0,18.09,30.15Z"/><path class="cls-2" d="M28.71,19.53a1.44,1.44,0,1,0-1.44-1.44A1.44,1.44,0,0,0,28.71,19.53Z"/><path class="cls-2" d="M28.71,5.13a1.44,1.44,0,1,0-1.44-1.44A1.44,1.44,0,0,0,28.71,5.13Z"/><path class="cls-2" d="M28.89,26.55a1.44,1.44,0,1,0-1.44-1.44A1.44,1.44,0,0,0,28.89,26.55Z"/><path class="cls-2" d="M14.49,26.55a1.44,1.44,0,1,0-1.44-1.44A1.44,1.44,0,0,0,14.49,26.55Z"/><path class="cls-2" d="M28.89,12.15a1.44,1.44,0,1,0-1.44-1.44A1.44,1.44,0,0,0,28.89,12.15Z"/><path class="cls-2" d="M14.49,12.15a1.44,1.44,0,1,0-1.44-1.44A1.44,1.44,0,0,0,14.49,12.15Z"/><path class="cls-2" d="M7.29,19.35a1.44,1.44,0,1,0-1.44-1.44A1.44,1.44,0,0,0,7.29,19.35Z"/><path class="cls-2" d="M21.69,19.35a1.44,1.44,0,1,0-1.44-1.44A1.44,1.44,0,0,0,21.69,19.35Z"/><path class="cls-2" d="M7.29,5A1.44,1.44,0,1,0,5.85,3.51,1.44,1.44,0,0,0,7.29,5Z"/><path class="cls-2" d="M21.69,5a1.44,1.44,0,1,0-1.44-1.44A1.44,1.44,0,0,0,21.69,5Z"/><path class="cls-2" d="M25.29,23a1.44,1.44,0,1,0-1.44-1.44A1.43,1.43,0,0,0,25.29,23Z"/><path class="cls-2" d="M10.89,23a1.44,1.44,0,1,0-1.44-1.44A1.44,1.44,0,0,0,10.89,23Z"/><path class="cls-2" d="M25.29,8.55a1.44,1.44,0,1,0-1.44-1.44A1.43,1.43,0,0,0,25.29,8.55Z"/><path class="cls-2" d="M10.89,8.55A1.44,1.44,0,1,0,9.45,7.11,1.44,1.44,0,0,0,10.89,8.55Z"/><path class="cls-2" d="M3.69,15.75a1.44,1.44,0,1,0-1.44-1.44A1.44,1.44,0,0,0,3.69,15.75Z"/><path class="cls-2" d="M18.09,15.75a1.44,1.44,0,1,0-1.44-1.44A1.44,1.44,0,0,0,18.09,15.75Z"/><path class="cls-2" d="M3.69,1.35A1.44,1.44,0,0,0,5.13-.09,1.45,1.45,0,0,0,3.69-1.53,1.44,1.44,0,0,0,2.25-.09,1.43,1.43,0,0,0,3.69,1.35Z"/><path class="cls-2" d="M18.09,1.35A1.44,1.44,0,0,0,19.53-.09a1.45,1.45,0,0,0-1.44-1.44A1.44,1.44,0,0,0,16.65-.09,1.43,1.43,0,0,0,18.09,1.35Z"/><path class="cls-2" d="M25.11,30.33a1.44,1.44,0,1,0-1.44-1.44A1.43,1.43,0,0,0,25.11,30.33Z"/><path class="cls-2" d="M10.71,30.33a1.44,1.44,0,1,0-1.44-1.44A1.44,1.44,0,0,0,10.71,30.33Z"/><path class="cls-2" d="M25.11,15.93a1.44,1.44,0,1,0-1.44-1.44A1.43,1.43,0,0,0,25.11,15.93Z"/><path class="cls-2" d="M10.71,15.93a1.44,1.44,0,1,0-1.44-1.44A1.44,1.44,0,0,0,10.71,15.93Z"/><path class="cls-2" d="M3.51,23.13a1.44,1.44,0,1,0-1.44-1.44A1.44,1.44,0,0,0,3.51,23.13Z"/><path class="cls-2" d="M17.91,23.13a1.44,1.44,0,1,0-1.44-1.44A1.43,1.43,0,0,0,17.91,23.13Z"/><path class="cls-2" d="M3.51,8.73A1.44,1.44,0,1,0,2.07,7.29,1.44,1.44,0,0,0,3.51,8.73Z"/><path class="cls-2" d="M17.91,8.73a1.44,1.44,0,1,0-1.44-1.44A1.43,1.43,0,0,0,17.91,8.73Z"/><path class="cls-2" d="M21.51,26.73a1.44,1.44,0,1,0-1.44-1.44A1.43,1.43,0,0,0,21.51,26.73Z"/><path class="cls-2" d="M7.11,26.73a1.44,1.44,0,1,0-1.44-1.44A1.43,1.43,0,0,0,7.11,26.73Z"/><path class="cls-2" d="M21.51,12.33a1.44,1.44,0,1,0-1.44-1.44A1.43,1.43,0,0,0,21.51,12.33Z"/><path class="cls-2" d="M7.11,12.33a1.44,1.44,0,1,0-1.44-1.44A1.43,1.43,0,0,0,7.11,12.33Z"/><path class="cls-2" d="M-.09,19.53a1.44,1.44,0,0,0,1.44-1.44A1.45,1.45,0,0,0-.09,16.65a1.44,1.44,0,0,0-1.44,1.44A1.43,1.43,0,0,0-.09,19.53Z"/><path class="cls-2" d="M14.31,19.53a1.44,1.44,0,1,0-1.44-1.44A1.43,1.43,0,0,0,14.31,19.53Z"/><path class="cls-2" d="M-.09,5.13A1.44,1.44,0,0,0,1.35,3.69,1.44,1.44,0,0,0-.09,2.25,1.43,1.43,0,0,0-1.53,3.69,1.43,1.43,0,0,0-.09,5.13Z"/><path class="cls-2" d="M14.31,5.13a1.44,1.44,0,1,0-1.44-1.44A1.43,1.43,0,0,0,14.31,5.13Z"/><path class="cls-2" d="M.09,26.55a1.43,1.43,0,0,0,1.44-1.44,1.44,1.44,0,0,0-2.88,0A1.43,1.43,0,0,0,.09,26.55Z"/><path class="cls-2" d="M.09,12.15a1.43,1.43,0,0,0,1.44-1.44,1.44,1.44,0,1,0-2.88,0A1.43,1.43,0,0,0,.09,12.15Z"/><path class="cls-2" d="M25.11,1.53A1.43,1.43,0,0,0,26.55.09a1.44,1.44,0,0,0-2.88,0A1.43,1.43,0,0,0,25.11,1.53Z"/><path class="cls-2" d="M10.71,1.53A1.44,1.44,0,0,0,12.15.09a1.45,1.45,0,0,0-1.44-1.44A1.44,1.44,0,0,0,9.27.09,1.43,1.43,0,0,0,10.71,1.53Z"/></pattern><pattern id="_10_dpi_20_3-2" data-name="10 dpi 20% 3" width="28.8" height="28.8" patternTransform="translate(-28.73 -16.88)" patternUnits="userSpaceOnUse" viewBox="0 0 28.8 28.8"><rect class="cls-1" width="28.8" height="28.8"/><path class="cls-4" d="M3.6,30.24A1.44,1.44,0,1,0,2.16,28.8,1.44,1.44,0,0,0,3.6,30.24Z"/><path class="cls-4" d="M18,30.24a1.44,1.44,0,1,0-1.44-1.44A1.44,1.44,0,0,0,18,30.24Z"/><path class="cls-4" d="M28.8,19.44A1.44,1.44,0,1,0,27.36,18,1.44,1.44,0,0,0,28.8,19.44Z"/><path class="cls-4" d="M28.8,5A1.44,1.44,0,1,0,27.36,3.6,1.44,1.44,0,0,0,28.8,5Z"/><path class="cls-4" d="M28.8,26.64a1.44,1.44,0,1,0-1.44-1.44A1.44,1.44,0,0,0,28.8,26.64Z"/><path class="cls-4" d="M14.4,26.64A1.44,1.44,0,1,0,13,25.2,1.44,1.44,0,0,0,14.4,26.64Z"/><path class="cls-4" d="M28.8,12.24a1.44,1.44,0,1,0-1.44-1.44A1.44,1.44,0,0,0,28.8,12.24Z"/><path class="cls-4" d="M14.4,12.24A1.44,1.44,0,1,0,13,10.8,1.44,1.44,0,0,0,14.4,12.24Z"/><path class="cls-4" d="M7.2,19.44A1.44,1.44,0,1,0,5.76,18,1.44,1.44,0,0,0,7.2,19.44Z"/><path class="cls-4" d="M21.6,19.44A1.44,1.44,0,1,0,20.16,18,1.44,1.44,0,0,0,21.6,19.44Z"/><path class="cls-4" d="M7.2,5A1.44,1.44,0,1,0,5.76,3.6,1.44,1.44,0,0,0,7.2,5Z"/><path class="cls-4" d="M21.6,5A1.44,1.44,0,1,0,20.16,3.6,1.44,1.44,0,0,0,21.6,5Z"/><path class="cls-4" d="M25.2,23a1.44,1.44,0,1,0-1.44-1.44A1.43,1.43,0,0,0,25.2,23Z"/><path class="cls-4" d="M10.8,23A1.44,1.44,0,1,0,9.36,21.6,1.44,1.44,0,0,0,10.8,23Z"/><path class="cls-4" d="M25.2,8.64A1.44,1.44,0,1,0,23.76,7.2,1.43,1.43,0,0,0,25.2,8.64Z"/><path class="cls-4" d="M10.8,8.64A1.44,1.44,0,1,0,9.36,7.2,1.44,1.44,0,0,0,10.8,8.64Z"/><path class="cls-4" d="M3.6,15.84A1.44,1.44,0,1,0,2.16,14.4,1.44,1.44,0,0,0,3.6,15.84Z"/><path class="cls-4" d="M18,15.84a1.44,1.44,0,1,0-1.44-1.44A1.44,1.44,0,0,0,18,15.84Z"/><path class="cls-4" d="M3.6,1.44A1.44,1.44,0,0,0,5,0,1.45,1.45,0,0,0,3.6-1.44,1.44,1.44,0,0,0,2.16,0,1.43,1.43,0,0,0,3.6,1.44Z"/><path class="cls-4" d="M18,1.44A1.44,1.44,0,0,0,19.44,0,1.45,1.45,0,0,0,18-1.44,1.44,1.44,0,0,0,16.56,0,1.43,1.43,0,0,0,18,1.44Z"/><path class="cls-4" d="M25.2,30.24a1.44,1.44,0,1,0-1.44-1.44A1.43,1.43,0,0,0,25.2,30.24Z"/><path class="cls-4" d="M10.8,30.24A1.44,1.44,0,1,0,9.36,28.8,1.44,1.44,0,0,0,10.8,30.24Z"/><path class="cls-4" d="M25.2,15.84a1.44,1.44,0,1,0-1.44-1.44A1.43,1.43,0,0,0,25.2,15.84Z"/><path class="cls-4" d="M10.8,15.84A1.44,1.44,0,1,0,9.36,14.4,1.44,1.44,0,0,0,10.8,15.84Z"/><path class="cls-4" d="M3.6,23A1.44,1.44,0,1,0,2.16,21.6,1.44,1.44,0,0,0,3.6,23Z"/><path class="cls-4" d="M18,23a1.44,1.44,0,1,0-1.44-1.44A1.44,1.44,0,0,0,18,23Z"/><path class="cls-4" d="M3.6,8.64A1.44,1.44,0,1,0,2.16,7.2,1.44,1.44,0,0,0,3.6,8.64Z"/><path class="cls-4" d="M18,8.64A1.44,1.44,0,1,0,16.56,7.2,1.44,1.44,0,0,0,18,8.64Z"/><path class="cls-4" d="M21.6,26.64a1.44,1.44,0,1,0-1.44-1.44A1.43,1.43,0,0,0,21.6,26.64Z"/><path class="cls-4" d="M7.2,26.64A1.44,1.44,0,1,0,5.76,25.2,1.43,1.43,0,0,0,7.2,26.64Z"/><path class="cls-4" d="M21.6,12.24a1.44,1.44,0,1,0-1.44-1.44A1.43,1.43,0,0,0,21.6,12.24Z"/><path class="cls-4" d="M7.2,12.24A1.44,1.44,0,1,0,5.76,10.8,1.43,1.43,0,0,0,7.2,12.24Z"/><path class="cls-4" d="M0,19.44A1.44,1.44,0,0,0,1.44,18,1.45,1.45,0,0,0,0,16.56,1.44,1.44,0,0,0-1.44,18,1.43,1.43,0,0,0,0,19.44Z"/><path class="cls-4" d="M14.4,19.44A1.44,1.44,0,1,0,13,18,1.43,1.43,0,0,0,14.4,19.44Z"/><path class="cls-4" d="M0,5A1.44,1.44,0,0,0,1.44,3.6,1.44,1.44,0,0,0,0,2.16,1.43,1.43,0,0,0-1.44,3.6,1.43,1.43,0,0,0,0,5Z"/><path class="cls-4" d="M14.4,5A1.44,1.44,0,1,0,13,3.6,1.43,1.43,0,0,0,14.4,5Z"/><path class="cls-4" d="M0,26.64A1.44,1.44,0,0,0,1.44,25.2,1.45,1.45,0,0,0,0,23.76,1.44,1.44,0,0,0-1.44,25.2,1.43,1.43,0,0,0,0,26.64Z"/><path class="cls-4" d="M0,12.24A1.44,1.44,0,0,0,1.44,10.8,1.45,1.45,0,0,0,0,9.36,1.44,1.44,0,0,0-1.44,10.8,1.43,1.43,0,0,0,0,12.24Z"/><path class="cls-4" d="M25.2,1.44A1.44,1.44,0,0,0,26.64,0a1.44,1.44,0,0,0-2.88,0A1.44,1.44,0,0,0,25.2,1.44Z"/><path class="cls-4" d="M10.8,1.44A1.45,1.45,0,0,0,12.24,0,1.45,1.45,0,0,0,10.8-1.44,1.44,1.44,0,0,0,9.36,0,1.44,1.44,0,0,0,10.8,1.44Z"/></pattern><pattern id="_10_dpi_20_2-2" data-name="10 dpi 20% 2" width="28.8" height="28.8" patternTransform="translate(-2.72 17.36)" patternUnits="userSpaceOnUse" viewBox="0 0 28.8 28.8"><rect class="cls-1" width="28.8" height="28.8"/><path class="cls-3" d="M28.8,23a1.44,1.44,0,1,0-1.44-1.44A1.44,1.44,0,0,0,28.8,23Z"/><path class="cls-3" d="M28.8,8.64A1.44,1.44,0,1,0,27.36,7.2,1.44,1.44,0,0,0,28.8,8.64Z"/><path class="cls-3" d="M28.8,30.24a1.44,1.44,0,1,0-1.44-1.44A1.44,1.44,0,0,0,28.8,30.24Z"/><path class="cls-3" d="M14.4,30.24A1.44,1.44,0,1,0,13,28.8,1.44,1.44,0,0,0,14.4,30.24Z"/><path class="cls-3" d="M28.8,15.84a1.44,1.44,0,1,0-1.44-1.44A1.44,1.44,0,0,0,28.8,15.84Z"/><path class="cls-3" d="M14.4,15.84A1.44,1.44,0,1,0,13,14.4,1.44,1.44,0,0,0,14.4,15.84Z"/><path class="cls-3" d="M7.2,23A1.44,1.44,0,1,0,5.76,21.6,1.44,1.44,0,0,0,7.2,23Z"/><path class="cls-3" d="M21.6,23a1.44,1.44,0,1,0-1.44-1.44A1.44,1.44,0,0,0,21.6,23Z"/><path class="cls-3" d="M7.2,8.64A1.44,1.44,0,1,0,5.76,7.2,1.44,1.44,0,0,0,7.2,8.64Z"/><path class="cls-3" d="M21.6,8.64A1.44,1.44,0,1,0,20.16,7.2,1.44,1.44,0,0,0,21.6,8.64Z"/><path class="cls-3" d="M25.2,26.64a1.44,1.44,0,1,0-1.44-1.44A1.43,1.43,0,0,0,25.2,26.64Z"/><path class="cls-3" d="M10.8,26.64A1.44,1.44,0,1,0,9.36,25.2,1.44,1.44,0,0,0,10.8,26.64Z"/><path class="cls-3" d="M25.2,12.24a1.44,1.44,0,1,0-1.44-1.44A1.43,1.43,0,0,0,25.2,12.24Z"/><path class="cls-3" d="M10.8,12.24A1.44,1.44,0,1,0,9.36,10.8,1.44,1.44,0,0,0,10.8,12.24Z"/><path class="cls-3" d="M3.6,19.44A1.44,1.44,0,1,0,2.16,18,1.44,1.44,0,0,0,3.6,19.44Z"/><path class="cls-3" d="M18,19.44A1.44,1.44,0,1,0,16.56,18,1.44,1.44,0,0,0,18,19.44Z"/><path class="cls-3" d="M3.6,5A1.44,1.44,0,1,0,2.16,3.6,1.44,1.44,0,0,0,3.6,5Z"/><path class="cls-3" d="M18,5A1.44,1.44,0,1,0,16.56,3.6,1.44,1.44,0,0,0,18,5Z"/><path class="cls-3" d="M25.2,33.84a1.44,1.44,0,1,0-1.44-1.44A1.43,1.43,0,0,0,25.2,33.84Z"/><path class="cls-3" d="M10.8,33.84A1.44,1.44,0,1,0,9.36,32.4,1.44,1.44,0,0,0,10.8,33.84Z"/><path class="cls-3" d="M25.2,19.44A1.44,1.44,0,1,0,23.76,18,1.43,1.43,0,0,0,25.2,19.44Z"/><path class="cls-3" d="M10.8,19.44A1.44,1.44,0,1,0,9.36,18,1.44,1.44,0,0,0,10.8,19.44Z"/><path class="cls-3" d="M3.6,26.64A1.44,1.44,0,1,0,2.16,25.2,1.44,1.44,0,0,0,3.6,26.64Z"/><path class="cls-3" d="M18,26.64a1.44,1.44,0,1,0-1.44-1.44A1.44,1.44,0,0,0,18,26.64Z"/><path class="cls-3" d="M3.6,12.24A1.44,1.44,0,1,0,2.16,10.8,1.44,1.44,0,0,0,3.6,12.24Z"/><path class="cls-3" d="M18,12.24a1.44,1.44,0,1,0-1.44-1.44A1.44,1.44,0,0,0,18,12.24Z"/><path class="cls-3" d="M21.6,30.24a1.44,1.44,0,1,0-1.44-1.44A1.43,1.43,0,0,0,21.6,30.24Z"/><path class="cls-3" d="M7.2,30.24A1.44,1.44,0,1,0,5.76,28.8,1.43,1.43,0,0,0,7.2,30.24Z"/><path class="cls-3" d="M21.6,15.84a1.44,1.44,0,1,0-1.44-1.44A1.43,1.43,0,0,0,21.6,15.84Z"/><path class="cls-3" d="M7.2,15.84A1.44,1.44,0,1,0,5.76,14.4,1.43,1.43,0,0,0,7.2,15.84Z"/><path class="cls-3" d="M0,23A1.44,1.44,0,0,0,1.44,21.6,1.44,1.44,0,0,0,0,20.16,1.43,1.43,0,0,0-1.44,21.6,1.43,1.43,0,0,0,0,23Z"/><path class="cls-3" d="M14.4,23A1.44,1.44,0,1,0,13,21.6,1.43,1.43,0,0,0,14.4,23Z"/><path class="cls-3" d="M0,8.64A1.44,1.44,0,0,0,1.44,7.2,1.44,1.44,0,0,0,0,5.76,1.43,1.43,0,0,0-1.44,7.2,1.43,1.43,0,0,0,0,8.64Z"/><path class="cls-3" d="M14.4,8.64A1.44,1.44,0,1,0,13,7.2,1.43,1.43,0,0,0,14.4,8.64Z"/><path class="cls-3" d="M0,30.24A1.43,1.43,0,0,0,1.44,28.8,1.44,1.44,0,0,0,0,27.36,1.44,1.44,0,0,0-1.44,28.8,1.43,1.43,0,0,0,0,30.24Z"/><path class="cls-3" d="M0,15.84A1.43,1.43,0,0,0,1.44,14.4,1.44,1.44,0,0,0,0,13,1.44,1.44,0,0,0-1.44,14.4,1.43,1.43,0,0,0,0,15.84Z"/><path class="cls-3" d="M28.8,1.44A1.44,1.44,0,0,0,30.24,0,1.45,1.45,0,0,0,28.8-1.44,1.44,1.44,0,0,0,27.36,0,1.43,1.43,0,0,0,28.8,1.44Z"/><path class="cls-3" d="M14.4,1.44A1.44,1.44,0,0,0,15.84,0,1.45,1.45,0,0,0,14.4-1.44,1.44,1.44,0,0,0,13,0,1.43,1.43,0,0,0,14.4,1.44Z"/><path class="cls-3" d="M25.2,5A1.44,1.44,0,1,0,23.76,3.6,1.44,1.44,0,0,0,25.2,5Z"/><path class="cls-3" d="M10.8,5A1.44,1.44,0,1,0,9.36,3.6,1.45,1.45,0,0,0,10.8,5Z"/><path class="cls-3" d="M21.6,1.44A1.43,1.43,0,0,0,23,0a1.44,1.44,0,1,0-2.88,0A1.43,1.43,0,0,0,21.6,1.44Z"/><path class="cls-3" d="M7.2,1.44A1.43,1.43,0,0,0,8.64,0,1.44,1.44,0,0,0,5.76,0,1.43,1.43,0,0,0,7.2,1.44Z"/><path class="cls-3" d="M0,1.44A1.43,1.43,0,0,0,1.44,0,1.44,1.44,0,0,0,0-1.44,1.44,1.44,0,0,0-1.44,0,1.43,1.43,0,0,0,0,1.44Z"/></pattern><pattern id="_10_dpi_20_7" data-name="10 dpi 20%" width="28.8" height="28.8" patternTransform="translate(-126.58 -32.61)" patternUnits="userSpaceOnUse" viewBox="0 0 28.8 28.8"><rect class="cls-1" width="28.8" height="28.8"/><path class="cls-2" d="M3.69,30.15a1.44,1.44,0,1,0-1.44-1.44A1.44,1.44,0,0,0,3.69,30.15Z"/><path class="cls-2" d="M18.09,30.15a1.44,1.44,0,1,0-1.44-1.44A1.44,1.44,0,0,0,18.09,30.15Z"/><path class="cls-2" d="M28.71,19.53a1.44,1.44,0,1,0-1.44-1.44A1.44,1.44,0,0,0,28.71,19.53Z"/><path class="cls-2" d="M28.71,5.13a1.44,1.44,0,1,0-1.44-1.44A1.44,1.44,0,0,0,28.71,5.13Z"/><path class="cls-2" d="M28.89,26.55a1.44,1.44,0,1,0-1.44-1.44A1.44,1.44,0,0,0,28.89,26.55Z"/><path class="cls-2" d="M14.49,26.55a1.44,1.44,0,1,0-1.44-1.44A1.44,1.44,0,0,0,14.49,26.55Z"/><path class="cls-2" d="M28.89,12.15a1.44,1.44,0,1,0-1.44-1.44A1.44,1.44,0,0,0,28.89,12.15Z"/><path class="cls-2" d="M14.49,12.15a1.44,1.44,0,1,0-1.44-1.44A1.44,1.44,0,0,0,14.49,12.15Z"/><path class="cls-2" d="M7.29,19.35a1.44,1.44,0,1,0-1.44-1.44A1.44,1.44,0,0,0,7.29,19.35Z"/><path class="cls-2" d="M21.69,19.35a1.44,1.44,0,1,0-1.44-1.44A1.44,1.44,0,0,0,21.69,19.35Z"/><path class="cls-2" d="M7.29,5A1.44,1.44,0,1,0,5.85,3.51,1.44,1.44,0,0,0,7.29,5Z"/><path class="cls-2" d="M21.69,5a1.44,1.44,0,1,0-1.44-1.44A1.44,1.44,0,0,0,21.69,5Z"/><path class="cls-2" d="M25.29,23a1.44,1.44,0,1,0-1.44-1.44A1.43,1.43,0,0,0,25.29,23Z"/><path class="cls-2" d="M10.89,23a1.44,1.44,0,1,0-1.44-1.44A1.44,1.44,0,0,0,10.89,23Z"/><path class="cls-2" d="M25.29,8.55a1.44,1.44,0,1,0-1.44-1.44A1.43,1.43,0,0,0,25.29,8.55Z"/><path class="cls-2" d="M10.89,8.55A1.44,1.44,0,1,0,9.45,7.11,1.44,1.44,0,0,0,10.89,8.55Z"/><path class="cls-2" d="M3.69,15.75a1.44,1.44,0,1,0-1.44-1.44A1.44,1.44,0,0,0,3.69,15.75Z"/><path class="cls-2" d="M18.09,15.75a1.44,1.44,0,1,0-1.44-1.44A1.44,1.44,0,0,0,18.09,15.75Z"/><path class="cls-2" d="M3.69,1.35A1.44,1.44,0,0,0,5.13-.09,1.45,1.45,0,0,0,3.69-1.53,1.44,1.44,0,0,0,2.25-.09,1.43,1.43,0,0,0,3.69,1.35Z"/><path class="cls-2" d="M18.09,1.35A1.44,1.44,0,0,0,19.53-.09a1.45,1.45,0,0,0-1.44-1.44A1.44,1.44,0,0,0,16.65-.09,1.43,1.43,0,0,0,18.09,1.35Z"/><path class="cls-2" d="M25.11,30.33a1.44,1.44,0,1,0-1.44-1.44A1.43,1.43,0,0,0,25.11,30.33Z"/><path class="cls-2" d="M10.71,30.33a1.44,1.44,0,1,0-1.44-1.44A1.44,1.44,0,0,0,10.71,30.33Z"/><path class="cls-2" d="M25.11,15.93a1.44,1.44,0,1,0-1.44-1.44A1.43,1.43,0,0,0,25.11,15.93Z"/><path class="cls-2" d="M10.71,15.93a1.44,1.44,0,1,0-1.44-1.44A1.44,1.44,0,0,0,10.71,15.93Z"/><path class="cls-2" d="M3.51,23.13a1.44,1.44,0,1,0-1.44-1.44A1.44,1.44,0,0,0,3.51,23.13Z"/><path class="cls-2" d="M17.91,23.13a1.44,1.44,0,1,0-1.44-1.44A1.43,1.43,0,0,0,17.91,23.13Z"/><path class="cls-2" d="M3.51,8.73A1.44,1.44,0,1,0,2.07,7.29,1.44,1.44,0,0,0,3.51,8.73Z"/><path class="cls-2" d="M17.91,8.73a1.44,1.44,0,1,0-1.44-1.44A1.43,1.43,0,0,0,17.91,8.73Z"/><path class="cls-2" d="M21.51,26.73a1.44,1.44,0,1,0-1.44-1.44A1.43,1.43,0,0,0,21.51,26.73Z"/><path class="cls-2" d="M7.11,26.73a1.44,1.44,0,1,0-1.44-1.44A1.43,1.43,0,0,0,7.11,26.73Z"/><path class="cls-2" d="M21.51,12.33a1.44,1.44,0,1,0-1.44-1.44A1.43,1.43,0,0,0,21.51,12.33Z"/><path class="cls-2" d="M7.11,12.33a1.44,1.44,0,1,0-1.44-1.44A1.43,1.43,0,0,0,7.11,12.33Z"/><path class="cls-2" d="M-.09,19.53a1.44,1.44,0,0,0,1.44-1.44A1.45,1.45,0,0,0-.09,16.65a1.44,1.44,0,0,0-1.44,1.44A1.43,1.43,0,0,0-.09,19.53Z"/><path class="cls-2" d="M14.31,19.53a1.44,1.44,0,1,0-1.44-1.44A1.43,1.43,0,0,0,14.31,19.53Z"/><path class="cls-2" d="M-.09,5.13A1.44,1.44,0,0,0,1.35,3.69,1.44,1.44,0,0,0-.09,2.25,1.43,1.43,0,0,0-1.53,3.69,1.43,1.43,0,0,0-.09,5.13Z"/><path class="cls-2" d="M14.31,5.13a1.44,1.44,0,1,0-1.44-1.44A1.43,1.43,0,0,0,14.31,5.13Z"/><path class="cls-2" d="M.09,26.55a1.43,1.43,0,0,0,1.44-1.44,1.44,1.44,0,0,0-2.88,0A1.43,1.43,0,0,0,.09,26.55Z"/><path class="cls-2" d="M.09,12.15a1.43,1.43,0,0,0,1.44-1.44,1.44,1.44,0,1,0-2.88,0A1.43,1.43,0,0,0,.09,12.15Z"/><path class="cls-2" d="M25.11,1.53A1.43,1.43,0,0,0,26.55.09a1.44,1.44,0,0,0-2.88,0A1.43,1.43,0,0,0,25.11,1.53Z"/><path class="cls-2" d="M10.71,1.53A1.44,1.44,0,0,0,12.15.09a1.45,1.45,0,0,0-1.44-1.44A1.44,1.44,0,0,0,9.27.09,1.43,1.43,0,0,0,10.71,1.53Z"/></pattern><pattern id="_10_dpi_20_11" data-name="10 dpi 20%" width="28.8" height="28.8" patternTransform="translate(12.83 15.44)" patternUnits="userSpaceOnUse" viewBox="0 0 28.8 28.8"><rect class="cls-1" width="28.8" height="28.8"/><path class="cls-2" d="M3.69,30.15a1.44,1.44,0,1,0-1.44-1.44A1.44,1.44,0,0,0,3.69,30.15Z"/><path class="cls-2" d="M18.09,30.15a1.44,1.44,0,1,0-1.44-1.44A1.44,1.44,0,0,0,18.09,30.15Z"/><path class="cls-2" d="M28.71,19.53a1.44,1.44,0,1,0-1.44-1.44A1.44,1.44,0,0,0,28.71,19.53Z"/><path class="cls-2" d="M28.71,5.13a1.44,1.44,0,1,0-1.44-1.44A1.44,1.44,0,0,0,28.71,5.13Z"/><path class="cls-2" d="M28.89,26.55a1.44,1.44,0,1,0-1.44-1.44A1.44,1.44,0,0,0,28.89,26.55Z"/><path class="cls-2" d="M14.49,26.55a1.44,1.44,0,1,0-1.44-1.44A1.44,1.44,0,0,0,14.49,26.55Z"/><path class="cls-2" d="M28.89,12.15a1.44,1.44,0,1,0-1.44-1.44A1.44,1.44,0,0,0,28.89,12.15Z"/><path class="cls-2" d="M14.49,12.15a1.44,1.44,0,1,0-1.44-1.44A1.44,1.44,0,0,0,14.49,12.15Z"/><path class="cls-2" d="M7.29,19.35a1.44,1.44,0,1,0-1.44-1.44A1.44,1.44,0,0,0,7.29,19.35Z"/><path class="cls-2" d="M21.69,19.35a1.44,1.44,0,1,0-1.44-1.44A1.44,1.44,0,0,0,21.69,19.35Z"/><path class="cls-2" d="M7.29,5A1.44,1.44,0,1,0,5.85,3.51,1.44,1.44,0,0,0,7.29,5Z"/><path class="cls-2" d="M21.69,5a1.44,1.44,0,1,0-1.44-1.44A1.44,1.44,0,0,0,21.69,5Z"/><path class="cls-2" d="M25.29,23a1.44,1.44,0,1,0-1.44-1.44A1.43,1.43,0,0,0,25.29,23Z"/><path class="cls-2" d="M10.89,23a1.44,1.44,0,1,0-1.44-1.44A1.44,1.44,0,0,0,10.89,23Z"/><path class="cls-2" d="M25.29,8.55a1.44,1.44,0,1,0-1.44-1.44A1.43,1.43,0,0,0,25.29,8.55Z"/><path class="cls-2" d="M10.89,8.55A1.44,1.44,0,1,0,9.45,7.11,1.44,1.44,0,0,0,10.89,8.55Z"/><path class="cls-2" d="M3.69,15.75a1.44,1.44,0,1,0-1.44-1.44A1.44,1.44,0,0,0,3.69,15.75Z"/><path class="cls-2" d="M18.09,15.75a1.44,1.44,0,1,0-1.44-1.44A1.44,1.44,0,0,0,18.09,15.75Z"/><path class="cls-2" d="M3.69,1.35A1.44,1.44,0,0,0,5.13-.09,1.45,1.45,0,0,0,3.69-1.53,1.44,1.44,0,0,0,2.25-.09,1.43,1.43,0,0,0,3.69,1.35Z"/><path class="cls-2" d="M18.09,1.35A1.44,1.44,0,0,0,19.53-.09a1.45,1.45,0,0,0-1.44-1.44A1.44,1.44,0,0,0,16.65-.09,1.43,1.43,0,0,0,18.09,1.35Z"/><path class="cls-2" d="M25.11,30.33a1.44,1.44,0,1,0-1.44-1.44A1.43,1.43,0,0,0,25.11,30.33Z"/><path class="cls-2" d="M10.71,30.33a1.44,1.44,0,1,0-1.44-1.44A1.44,1.44,0,0,0,10.71,30.33Z"/><path class="cls-2" d="M25.11,15.93a1.44,1.44,0,1,0-1.44-1.44A1.43,1.43,0,0,0,25.11,15.93Z"/><path class="cls-2" d="M10.71,15.93a1.44,1.44,0,1,0-1.44-1.44A1.44,1.44,0,0,0,10.71,15.93Z"/><path class="cls-2" d="M3.51,23.13a1.44,1.44,0,1,0-1.44-1.44A1.44,1.44,0,0,0,3.51,23.13Z"/><path class="cls-2" d="M17.91,23.13a1.44,1.44,0,1,0-1.44-1.44A1.43,1.43,0,0,0,17.91,23.13Z"/><path class="cls-2" d="M3.51,8.73A1.44,1.44,0,1,0,2.07,7.29,1.44,1.44,0,0,0,3.51,8.73Z"/><path class="cls-2" d="M17.91,8.73a1.44,1.44,0,1,0-1.44-1.44A1.43,1.43,0,0,0,17.91,8.73Z"/><path class="cls-2" d="M21.51,26.73a1.44,1.44,0,1,0-1.44-1.44A1.43,1.43,0,0,0,21.51,26.73Z"/><path class="cls-2" d="M7.11,26.73a1.44,1.44,0,1,0-1.44-1.44A1.43,1.43,0,0,0,7.11,26.73Z"/><path class="cls-2" d="M21.51,12.33a1.44,1.44,0,1,0-1.44-1.44A1.43,1.43,0,0,0,21.51,12.33Z"/><path class="cls-2" d="M7.11,12.33a1.44,1.44,0,1,0-1.44-1.44A1.43,1.43,0,0,0,7.11,12.33Z"/><path class="cls-2" d="M-.09,19.53a1.44,1.44,0,0,0,1.44-1.44A1.45,1.45,0,0,0-.09,16.65a1.44,1.44,0,0,0-1.44,1.44A1.43,1.43,0,0,0-.09,19.53Z"/><path class="cls-2" d="M14.31,19.53a1.44,1.44,0,1,0-1.44-1.44A1.43,1.43,0,0,0,14.31,19.53Z"/><path class="cls-2" d="M-.09,5.13A1.44,1.44,0,0,0,1.35,3.69,1.44,1.44,0,0,0-.09,2.25,1.43,1.43,0,0,0-1.53,3.69,1.43,1.43,0,0,0-.09,5.13Z"/><path class="cls-2" d="M14.31,5.13a1.44,1.44,0,1,0-1.44-1.44A1.43,1.43,0,0,0,14.31,5.13Z"/><path class="cls-2" d="M.09,26.55a1.43,1.43,0,0,0,1.44-1.44,1.44,1.44,0,0,0-2.88,0A1.43,1.43,0,0,0,.09,26.55Z"/><path class="cls-2" d="M.09,12.15a1.43,1.43,0,0,0,1.44-1.44,1.44,1.44,0,1,0-2.88,0A1.43,1.43,0,0,0,.09,12.15Z"/><path class="cls-2" d="M25.11,1.53A1.43,1.43,0,0,0,26.55.09a1.44,1.44,0,0,0-2.88,0A1.43,1.43,0,0,0,25.11,1.53Z"/><path class="cls-2" d="M10.71,1.53A1.44,1.44,0,0,0,12.15.09a1.45,1.45,0,0,0-1.44-1.44A1.44,1.44,0,0,0,9.27.09,1.43,1.43,0,0,0,10.71,1.53Z"/></pattern></defs><g class="cls-5"><g id="background_icon" data-name="background icon"><rect class="cls-6" x="25.95" y="0.5" width="208.34" height="208.34" rx="12.18"/><rect class="cls-6" x="25.95" y="268.69" width="208.34" height="208.34" rx="12.18"/><rect class="cls-6" x="25.95" y="537.37" width="208.34" height="208.34" rx="12.18"/><rect class="cls-6" x="25.95" y="807.1" width="208.34" height="208.34" rx="12.18"/><rect class="cls-6" x="740" y="0.5" width="208.34" height="208.34" rx="12.18"/><rect class="cls-6" x="742.97" y="268.69" width="208.34" height="208.34" rx="12.18"/><rect class="cls-6" x="742.97" y="537.37" width="208.34" height="208.34" rx="12.18"/><rect class="cls-6" x="742.97" y="805.81" width="208.34" height="208.34" rx="12.18"/><rect class="cls-6" x="1452.97" y="0.5" width="208.34" height="208.34" rx="12.18"/><rect class="cls-6" x="1455.94" y="268.69" width="208.34" height="208.34" rx="12.18"/><rect class="cls-6" x="1455.94" y="537.37" width="208.34" height="208.34" rx="12.18"/><rect class="cls-6" x="1455.94" y="805.81" width="208.34" height="208.34" rx="12.18"/></g><g id="kitchen_counter" data-name="kitchen counter"><polygon class="cls-7" points="1516.38 117.03 1515.78 120 1476.42 120 1476.68 167.58 1646.97 167.58 1646.97 117.03 1516.38 117.03"/><polygon class="cls-7" points="1481.53 50.25 1481.31 75.93 1514.51 75.81 1514.51 92 1646.21 92 1646.21 50.13 1481.53 50.25"/><polygon class="cls-8" points="1514.51 92 1514.51 75.81 1481.31 75.81 1481.31 50.13 1646.21 50.13 1646.21 92 1514.51 92"/><rect class="cls-8" x="1515.02" y="117.03" width="131.19" height="50.55"/><line class="cls-9" x1="1515.4" y1="75.81" x2="1515.4" y2="50.13"/><line class="cls-9" x1="1546.97" y1="50.13" x2="1546.97" y2="91.81"/><line class="cls-9" x1="1579.65" y1="50.13" x2="1579.65" y2="92.03"/><line class="cls-9" x1="1612.68" y1="50.13" x2="1612.68" y2="91.53"/><line class="cls-9" x1="1546.97" y1="117.03" x2="1546.97" y2="167.58"/><line class="cls-9" x1="1514.51" y1="159.66" x2="1646.21" y2="159.66"/><line class="cls-9" x1="1612.68" y1="117.03" x2="1612.68" y2="167.58"/><line class="cls-9" x1="1579.65" y1="117.03" x2="1579.65" y2="167.58"/><line class="cls-9" x1="1579.65" y1="128.01" x2="1612.68" y2="128.01"/><line class="cls-9" x1="1580.36" y1="138.9" x2="1612.68" y2="138.9"/><line class="cls-9" x1="1579.65" y1="150.13" x2="1612.68" y2="150.13"/><polyline class="cls-8" points="1514.51 120 1475.65 120 1475.65 167.58 1515.02 167.58"/><path class="cls-10" d="M1594.4,83.13" transform="translate(-113.09 -32.99)"/><line class="cls-11" x1="1480.12" y1="133.88" x2="1509.74" y2="133.88"/><rect class="cls-9" x="1482.17" y="138.9" width="25.91" height="18.72"/><rect class="cls-12" x="1482.17" y="138.9" width="25.91" height="18.72"/><circle class="cls-2" cx="1482.93" cy="125.15" r="1.7"/><circle class="cls-2" cx="1491.29" cy="125.15" r="1.7"/><circle class="cls-2" cx="1499.14" cy="125.15" r="1.7"/><circle class="cls-2" cx="1507.67" cy="125.15" r="1.7"/><circle class="cls-2" cx="1498.51" cy="70.97" r="1.89"/><circle class="cls-2" cx="1540.76" cy="87.15" r="1.89"/><circle class="cls-2" cx="1553.02" cy="87.15" r="1.89"/><circle class="cls-2" cx="1606.55" cy="87.15" r="1.89"/><circle class="cls-2" cx="1618.8" cy="87.15" r="1.89"/><circle class="cls-2" cx="1540.76" cy="123.45" r="1.89"/><circle class="cls-2" cx="1553.02" cy="123.45" r="1.89"/><circle class="cls-2" cx="1596.17" cy="123.45" r="1.89"/><circle class="cls-2" cx="1618.63" cy="123.45" r="1.89"/><circle class="cls-2" cx="1596.17" cy="133.45" r="1.89"/><circle class="cls-2" cx="1596.17" cy="144.19" r="1.89"/><circle class="cls-2" cx="1596.17" cy="154.9" r="1.89"/><rect class="cls-12" x="1514.51" y="159.66" width="131.7" height="7.91"/></g><g id="house"><polygon class="cls-13" points="1548.09 320.9 1499.54 371.13 1499.54 431.41 1634.49 431.41 1635.8 381.81 1573.81 319.75 1548.09 320.9"/><polygon class="cls-14" points="1549.31 320.9 1500.75 371.13 1500.75 431.41 1635.71 431.41 1637.02 381.81 1575.03 319.75 1549.31 320.9"/><polyline class="cls-10" points="1484.08 384.7 1547.99 320.8 1614.69 387.5"/><line class="cls-10" x1="1547.99" y1="320.8" x2="1547.99" y2="372.8"/><line class="cls-10" x1="1497.66" y1="371.13" x2="1596.96" y2="371.13"/><line class="cls-10" x1="1573.47" y1="348.57" x2="1548.8" y2="370.41"/><line class="cls-10" x1="1522.93" y1="348.57" x2="1547.24" y2="370.41"/><polyline class="cls-10" points="1499.54 372.8 1499.54 431.06 1608.13 431.06 1608.13 380.94"/><line class="cls-10" x1="1517.08" y1="372.8" x2="1517.08" y2="431.07"/><line class="cls-10" x1="1528.36" y1="372.8" x2="1528.36" y2="431.07"/><line class="cls-10" x1="1579.94" y1="372.8" x2="1579.94" y2="431.07"/><line class="cls-10" x1="1596.96" y1="372.8" x2="1596.96" y2="431.07"/><polyline class="cls-10" points="1547.99 319.94 1573.47 319.94 1640.12 386.59"/><line class="cls-10" x1="1601.49" y1="347.49" x2="1587.97" y2="359.49"/><path class="cls-10" d="M1686.56,355.88" transform="translate(-113.09 -32.99)"/><line class="cls-10" x1="1575.35" y1="322.89" x2="1575.35" y2="348.57"/><line class="cls-10" x1="1575.27" y1="321.28" x2="1562.5" y2="332.7"/><polyline class="cls-10" points="1609 382.51 1634.49 382.51 1634.49 431.06 1608.13 431.06"/></g><g id="cabinet"><path class="cls-15" d="M1618.87,875.64v128.17h105.7V875.64Zm56.43,116.3c-7.33,0-13.28-4.46-13.28-10s6-10,13.28-10,13.27,4.46,13.27,10S1682.63,991.94,1675.3,991.94Zm-1.53-44.68c-8.18,0-14.81-3.49-14.81-7.79s6.63-7.79,14.81-7.79,14.8,3.49,14.8,7.79S1681.94,947.26,1673.77,947.26Zm4-39.83c-8,0-14.42-3.89-14.42-8.69s6.46-8.68,14.42-8.68,14.43,3.89,14.43,8.68S1685.69,907.43,1677.72,907.43Z" transform="translate(-113.09 -32.99)"/><path class="cls-16" d="M1618.87,875.39v128.16h105.7V875.39Zm56.43,116.29c-7.33,0-13.28-4.46-13.28-10s6-10,13.28-10,13.27,4.46,13.27,10S1682.63,991.68,1675.3,991.68ZM1673.77,947c-8.18,0-14.81-3.5-14.81-7.8s6.63-7.79,14.81-7.79,14.8,3.49,14.8,7.79S1681.94,947,1673.77,947Zm4-39.84c-8,0-14.42-3.89-14.42-8.69s6.46-8.68,14.42-8.68,14.43,3.9,14.43,8.68S1685.69,907.17,1677.72,907.17Z" transform="translate(-113.09 -32.99)"/><path class="cls-7" d="M1625.85,881.77V917h92.43V881.77Zm45.87,22a4.54,4.54,0,1,1,4.54-4.53A4.53,4.53,0,0,1,1671.72,903.72Z" transform="translate(-113.09 -32.99)"/><path class="cls-7" d="M1625.85,922.11v35.23h92.43V922.11Zm45.87,22.15a4.54,4.54,0,1,1,4.54-4.54A4.53,4.53,0,0,1,1671.72,944.26Z" transform="translate(-113.09 -32.99)"/><path class="cls-7" d="M1625.85,962.45v35.23h92.43V962.45Zm45.87,23a4.54,4.54,0,1,1,4.54-4.54A4.53,4.53,0,0,1,1671.72,985.43Z" transform="translate(-113.09 -32.99)"/><path class="cls-17" d="M1618.87,610.45V738.62h105.7V610.45Zm56.43,116.3c-7.33,0-13.28-4.46-13.28-10s6-10,13.28-10,13.27,4.46,13.27,10S1682.63,726.75,1675.3,726.75Zm-1.53-44.68c-8.18,0-14.81-3.49-14.81-7.79s6.63-7.79,14.81-7.79,14.8,3.49,14.8,7.79S1681.94,682.07,1673.77,682.07Zm4-39.83c-8,0-14.42-3.89-14.42-8.69s6.46-8.68,14.42-8.68,14.43,3.89,14.43,8.68S1685.69,642.24,1677.72,642.24Z" transform="translate(-113.09 -32.99)"/><path class="cls-18" d="M1619.21,610.2V738.37h105.71V610.2Zm56.44,116.3c-7.34,0-13.29-4.46-13.29-10s6-10,13.29-10,13.27,4.46,13.27,10S1683,726.5,1675.65,726.5Zm-1.54-44.68c-8.17,0-14.81-3.49-14.81-7.79s6.64-7.79,14.81-7.79,14.81,3.49,14.81,7.79S1682.28,681.82,1674.11,681.82Zm4-39.83c-8,0-14.41-3.89-14.41-8.69s6.45-8.68,14.41-8.68,14.43,3.89,14.43,8.68S1686,642,1678.06,642Z" transform="translate(-113.09 -32.99)"/><path class="cls-19" d="M1625.85,616.58v35.23h92.43V616.58Zm45.87,21.95a4.54,4.54,0,1,1,4.54-4.53A4.53,4.53,0,0,1,1671.72,638.53Z" transform="translate(-113.09 -32.99)"/><path class="cls-19" d="M1625.85,656.92v35.23h92.43V656.92Zm45.87,22.15a4.54,4.54,0,1,1,4.54-4.54A4.53,4.53,0,0,1,1671.72,679.07Z" transform="translate(-113.09 -32.99)"/><path class="cls-19" d="M1625.85,697.26v35.23h92.43V697.26Zm45.87,23a4.54,4.54,0,1,1,4.54-4.54A4.53,4.53,0,0,1,1671.72,720.24Z" transform="translate(-113.09 -32.99)"/></g><g id="A_forest" data-name="A forest"><rect class="cls-3" x="170.65" y="408.53" width="3.15" height="48.43"/><polygon class="cls-20" points="171.99 309.45 143.71 346.62 151.34 353.63 139.78 372.6 148.66 381.47 131.01 411.85 213.43 411.85 195.73 385.08 205.85 376.47 192.29 354.21 199.9 346.81 171.99 309.45"/><polygon class="cls-21" points="171.99 309.45 143.71 346.62 151.34 353.63 139.78 372.6 148.66 381.47 131.01 411.85 213.43 411.85 195.73 385.08 205.85 376.47 192.29 354.21 199.9 346.81 171.99 309.45"/><path class="cls-22" d="M335.76,130.75c7.69,26.59-10,50.13-29.69,50.13-23.55,0-38.15-23.31-31.27-50.13,7.08-27.63,21.48-50.14,30.92-50.14C314.1,80.61,326.8,99.76,335.76,130.75Z" transform="translate(-113.09 -32.99)"/><polygon class="cls-23" points="209.75 107.39 193.8 135.03 193.8 190.42 190.01 190.42 190.01 135.5 189.84 135.6 173.56 107.39 176.84 105.5 190.01 128.33 190.01 78.32 193.8 78.32 193.8 127.46 206.47 105.5 209.75 107.39"/><path class="cls-24" d="M113.91,180h1.75l-1,0C114.44,180,114.17,180,113.91,180Z" transform="translate(-113.09 -32.99)"/><path class="cls-24" d="M199,167.1c-.24,0-.49,0-.72,0l-.89,0Z" transform="translate(-113.09 -32.99)"/><path class="cls-24" d="M113.09,179.92c.27,0,.55,0,.82,0h-.82Z" transform="translate(-113.09 -32.99)"/><path class="cls-24" d="M199.21,167.09h0Z" transform="translate(-113.09 -32.99)"/><rect class="cls-3" x="74.77" y="137.72" width="3.54" height="52.22"/><rect class="cls-3" x="122.86" y="135.44" width="3.54" height="54.5"/><path class="cls-24" d="M241.28,209.3c0,7.69-6.94,13.93-15.59,14.1H209.33a10.34,10.34,0,0,1,0-20.68,11.07,11.07,0,0,1,1.75.14,16.31,16.31,0,0,1,14.22-7.69C234.13,195.18,241.28,201.5,241.28,209.3Z" transform="translate(-113.09 -32.99)"/><path class="cls-4" d="M225.69,223.4h0Z" transform="translate(-113.09 -32.99)"/><polygon class="cls-15" points="124.37 20.2 92.54 62.02 101.14 69.92 88.13 91.27 98.12 101.25 78.26 135.44 171.01 135.44 151.09 105.31 162.48 95.62 147.22 70.58 155.79 62.24 124.37 20.2"/><rect class="cls-3" x="116.15" y="401.59" width="3.6" height="55.37"/><polygon class="cls-15" points="117.68 284.52 85.35 327 94.08 335.03 80.86 356.71 91.01 366.85 70.83 401.59 165.07 401.59 144.83 370.98 156.39 361.13 140.9 335.69 149.6 327.22 117.68 284.52"/><rect class="cls-3" x="72.35" y="413.08" width="2.85" height="43.88"/><polygon class="cls-13" points="73.61 332.88 52.45 366.56 58.17 372.92 49.52 390.1 56.16 398.14 42.96 425.67 104.6 425.67 91.36 401.4 98.93 393.61 88.79 373.44 94.48 366.73 73.61 332.88"/><polygon class="cls-14" points="73.61 332.88 52.45 366.56 58.17 372.92 49.52 390.1 56.16 398.14 42.96 425.67 104.6 425.67 91.36 401.4 98.93 393.61 88.79 373.44 94.48 366.73 73.61 332.88"/><path class="cls-25" d="M283.58,205.71a17.07,17.07,0,0,1-17.07,17.07v.62H227.4v-4.74a17.06,17.06,0,0,1,11.11-30,16.71,16.71,0,0,1,3.27.32,17.06,17.06,0,0,1,32.28,1.44A17,17,0,0,1,283.58,205.71Z" transform="translate(-113.09 -32.99)"/><path class="cls-26" d="M232.26,148.43c0,12-8.89,21.76-20,22.28H168.58c-.24,0-.5,0-.74,0-10.91-.8-19.52-10.46-19.52-22.25A22.71,22.71,0,0,1,157.51,130c2.44-11.71,12.27-20.47,24-20.47,10.81,0,20,7.41,23.3,17.7a19.69,19.69,0,0,1,6.44-1.07C222.87,126.13,232.26,136.11,232.26,148.43Z" transform="translate(-113.09 -32.99)"/><rect class="cls-3" x="76.08" y="686.29" width="2.73" height="40.22"/><path class="cls-22" d="M223.37,703.41c0,9.24-6.84,16.77-15.44,17.17H174.32a5.44,5.44,0,0,1-.57,0c-8.4-.61-15-8-15-17.14a17.49,17.49,0,0,1,7.08-14.21c1.88-9,9.45-15.77,18.52-15.77,8.32,0,15.39,5.71,17.94,13.63a15.4,15.4,0,0,1,5-.82C216.14,686.24,223.37,693.93,223.37,703.41Z" transform="translate(-113.09 -32.99)"/></g><g id="sawmill"><path class="cls-20" d="M273.76,942.72s-1.31-4.62-4.07-6.76a11.21,11.21,0,0,0-4.38-1.78,52.65,52.65,0,0,0-6.48-16.27l6.65-3.24s-2.59-4-5.86-5.28c-2-.77-5-.53-7.26-.08a53.39,53.39,0,0,0-11.22-9.25l3.41-7s-4.53-1.57-7.87-.52a12.43,12.43,0,0,0-4.55,3.12,53.1,53.1,0,0,0-17.44-3.45v-8.89s-4.76.57-7.32,3c-1.6,1.5-2.71,4.4-3.3,6.68a52.7,52.7,0,0,0-15.77,5.36l-2.86-6.13s-4.08,2.51-5.39,5.77a13.21,13.21,0,0,0-.39,6,53.35,53.35,0,0,0-12.31,14.12l-4.56-3.54s-2.49,4.09-2.16,7.58a12.69,12.69,0,0,0,2.26,5.35A53.19,53.19,0,0,0,159.76,945l-5.56-.27s.33,4.77,2.6,7.44a10.82,10.82,0,0,0,3.74,2.57A53.08,53.08,0,0,0,166.79,972l-5.25,2.86s2.76,3.91,6.09,5a11.41,11.41,0,0,0,4.85.22A54.16,54.16,0,0,0,186.8,992l-3.81,4.2s3.91,2.79,7.41,2.73c2,0,4.62-1.27,6.56-2.49a53.38,53.38,0,0,0,16.18,2.49l1.48,0-.25,6.45s4.78-.37,7.43-2.67a12.93,12.93,0,0,0,3.06-5,53.4,53.4,0,0,0,41.66-52.09c0-.54,0-1.08,0-1.63ZM214,993.18a48.89,48.89,0,1,1,48.88-48.89A48.88,48.88,0,0,1,214,993.18Zm0-94.73a46,46,0,1,0,46,46A46,46,0,0,0,214,898.45Zm-32.35,52.49a6.65,6.65,0,1,1,6.65-6.65A6.65,6.65,0,0,1,181.63,950.94ZM214,956.77a12.48,12.48,0,1,1,12.48-12.48A12.47,12.47,0,0,1,214,956.77Z" transform="translate(-113.09 -32.99)"/><path class="cls-13" d="M257.21,925.68v82.19H226.46V925.68h9.15v-7h-2.45a3.57,3.57,0,0,1-3.56-3.55,3.51,3.51,0,0,1,1.05-2.5,3.47,3.47,0,0,1,2.51-1h19.89a3.55,3.55,0,0,1,3.55,3.55,3.59,3.59,0,0,1-3.55,3.55h-3.61v7Z" transform="translate(-113.09 -32.99)"/><path class="cls-27" d="M257.21,925.68v82.19H226.46V925.68h9.15v-7h-2.45a3.57,3.57,0,0,1-3.56-3.55,3.51,3.51,0,0,1,1.05-2.5,3.47,3.47,0,0,1,2.51-1h19.89a3.55,3.55,0,0,1,3.55,3.55,3.59,3.59,0,0,1-3.55,3.55h-3.61v7Z" transform="translate(-113.09 -32.99)"/><path class="cls-28" d="M318.52,965.81a17.79,17.79,0,0,0-3.28-.3H285.07v-11a2.53,2.53,0,0,0,0-.28c11.17-8.76,44.19-32.71,39.29-37.61-3.31-3.31-36.2,16.58-49,23.33a15.58,15.58,0,0,0-6-1.21h-9.54A15.81,15.81,0,0,0,244,954.55v17.72a10.74,10.74,0,0,0-1.4-.09A11.75,11.75,0,0,0,230.94,984v23.83H333.61v-24A18.37,18.37,0,0,0,318.52,965.81Zm-60.63-4.51a6.92,6.92,0,1,1,6.92-6.92A6.92,6.92,0,0,1,257.89,961.3ZM319,987.68A10.3,10.3,0,0,1,308.69,998H275.28A10.3,10.3,0,0,1,265,987.68v-1.13a9.92,9.92,0,0,1,.32-2.51,10.3,10.3,0,0,1,9.95-7.76h33.41A10.3,10.3,0,0,1,319,986.55Z" transform="translate(-113.09 -32.99)"/></g><g id="c_forest" data-name="c forest"><path class="cls-29" d="M270,656.16c8.64,29.84-11.17,56.26-33.32,56.26-26.43,0-42.81-26.17-35.1-56.26,8-31,24.12-56.27,34.7-56.27C245.66,599.89,259.91,621.38,270,656.16Z" transform="translate(-113.09 -32.99)"/><polygon class="cls-23" points="142.38 633.09 124.48 664.1 124.48 726.26 120.23 726.26 120.23 664.63 120.03 664.74 101.76 633.09 105.45 630.97 120.23 656.58 120.23 600.46 124.48 600.46 124.48 655.6 138.7 630.97 142.38 633.09"/><path class="cls-22" d="M320.76,669.25c7.55,26.09-9.76,49.18-29.13,49.18-23.09,0-37.41-22.87-30.67-49.18,7-27.1,21.08-49.18,30.33-49.18C299.52,620.07,312,638.85,320.76,669.25Z" transform="translate(-113.09 -32.99)"/><polygon class="cls-23" points="195 644.82 179.35 671.93 179.35 726.26 175.64 726.26 175.64 672.39 175.47 672.49 159.5 644.82 162.72 642.97 175.64 665.36 175.64 616.3 179.35 616.3 179.35 664.5 191.78 642.97 195 644.82"/></g><g id="small_truck" data-name="small truck"><path class="cls-3" d="M1043.9,972.64h-1V949.87l-12.3-27.12H994.29v43.67h-6.15V910.74H873.55v67.63h15.52a15.11,15.11,0,0,1-.22-2.62,16,16,0,0,1,31.94,0,15.11,15.11,0,0,1-.22,2.62h77.29a15.11,15.11,0,0,1-.22-2.62,16,16,0,1,1,31.94,0,15.11,15.11,0,0,1-.22,2.62h14.54a2.89,2.89,0,0,0,2.87-2.87A2.87,2.87,0,0,0,1043.9,972.64ZM1001,947.82V929.74h25.31l8.66,18.08Z" transform="translate(-113.09 -32.99)"/><path class="cls-3" d="M904.82,961.6a14.16,14.16,0,0,0-14.16,14.15,13.38,13.38,0,0,0,.25,2.62,14.16,14.16,0,0,0,27.82,0,13.38,13.38,0,0,0,.25-2.62A14.16,14.16,0,0,0,904.82,961.6Zm0,21.74a8.09,8.09,0,0,1-7.45-5,8.22,8.22,0,0,1-.62-3.11,8.07,8.07,0,1,1,8.07,8.08Z" transform="translate(-113.09 -32.99)"/><path class="cls-3" d="M1013.62,961.6a14.15,14.15,0,1,0,13.9,16.77,13.38,13.38,0,0,0,.25-2.62A14.16,14.16,0,0,0,1013.62,961.6Zm0,21.74a8.1,8.1,0,0,1-7.46-5,8.22,8.22,0,0,1-.62-3.11,8.07,8.07,0,1,1,8.08,8.08Z" transform="translate(-113.09 -32.99)"/><path class="cls-30" d="M988.14,910.74v55.68H917.78a16,16,0,0,0-25.92,0H873.55V910.74Z" transform="translate(-113.09 -32.99)"/></g><g id="container_ship" data-name="container ship"><path class="cls-31" d="M1057.8,132.06c-.09.3-12.91,27.2-12.91,27.2H867l-3.61-10.81v-12h44.72s3.38,6.69,3.55,6.85a.17.17,0,0,0,.28,0H1019.4a4.05,4.05,0,0,0,1.23-.34l.2-.16s.11-.11.25-.28c.52-.6,1.82-2.14,3.27-3.88.08-.11.18-.21.27-.32,1.09-1.32,2.26-2.71,3.24-3.88l.27-.33.69-.82c.81-1,1.33-1.61,1.33-1.61s27.27,0,27.44,0S1057.89,131.77,1057.8,132.06Z" transform="translate(-113.09 -32.99)"/><path class="cls-3" d="M901.57,113v-3.14h2.32v-2.27h-21V96H882v11.6h-1.06V96H880v11.6h-6.92v2.27h2.74V113h-8.22v2.82h1.93l6.29,5.74v7.74h-6.11v7.12h31.85V121.63l6.33-5.78h1.7V113Zm-2.91,2h1.05v4.06h-1.05Zm-2.56,0h1.06v4.06H896.1Zm-2.47,0h1.06v4.06h-1.06Zm-2.62,0h1.06v4.06H891Zm-2.41,0h1.06v4.06H888.6Zm-2.49,0h1.06v4.06h-1.06Zm-2.59,0h1.06v4.06h-1.06Zm-2.59,0H882v4.06h-1.06Zm-.14,17.85h-1.55v-1.55h1.55Zm3.05,0H882.3v-1.55h1.54Zm3.18,0h-1.55v-1.55H887Zm3.14,0H888.6v-1.55h1.56Zm3.06,0h-1.54v-1.55h1.54Zm7.42-8.76H876.58v-.82h24.06Z" transform="translate(-113.09 -32.99)"/><rect class="cls-32" x="800.55" y="93.04" width="10.67" height="3.88"/><rect class="cls-32" x="800.55" y="97.24" width="10.67" height="3.88"/><rect class="cls-33" x="800.55" y="101.44" width="10.67" height="3.88"/><rect class="cls-24" x="800.55" y="105.65" width="10.67" height="3.88"/><rect class="cls-34" x="812.27" y="93.04" width="10.67" height="3.88"/><rect class="cls-4" x="812.27" y="88.84" width="10.67" height="3.88"/><rect class="cls-34" x="812.27" y="97.24" width="10.67" height="3.88"/><rect class="cls-4" x="812.27" y="101.44" width="10.67" height="3.88"/><rect class="cls-24" x="812.27" y="105.65" width="10.67" height="3.88"/><rect class="cls-34" x="823.86" y="93.04" width="10.67" height="3.88"/><rect class="cls-33" x="823.86" y="97.24" width="10.67" height="3.88"/><rect class="cls-25" x="823.86" y="101.44" width="10.67" height="3.88"/><rect class="cls-32" x="823.86" y="105.65" width="10.67" height="3.88"/><rect class="cls-35" x="835.5" y="93.04" width="10.67" height="3.88"/><rect class="cls-32" x="835.5" y="88.84" width="10.67" height="3.88"/><rect class="cls-34" x="835.5" y="97.24" width="10.67" height="3.88"/><rect class="cls-24" x="835.5" y="101.44" width="10.67" height="3.88"/><rect class="cls-25" x="835.5" y="105.65" width="10.67" height="3.88"/><rect class="cls-32" x="847.14" y="93.04" width="10.67" height="3.88"/><rect class="cls-4" x="847.14" y="88.84" width="10.67" height="3.88"/><rect class="cls-32" x="847.14" y="84.64" width="10.67" height="3.88"/><rect class="cls-2" x="847.14" y="80.43" width="10.67" height="3.88"/><rect class="cls-36" x="847.14" y="97.24" width="10.67" height="3.88"/><rect class="cls-24" x="847.14" y="101.44" width="10.67" height="3.88"/><rect class="cls-33" x="847.14" y="105.65" width="10.67" height="3.88"/><rect class="cls-4" x="858.65" y="93.04" width="10.67" height="3.88"/><rect class="cls-24" x="858.65" y="88.84" width="10.67" height="3.88"/><rect class="cls-2" x="858.65" y="84.64" width="10.67" height="3.88"/><rect class="cls-25" x="858.65" y="80.43" width="10.67" height="3.88"/><rect class="cls-34" x="858.65" y="97.24" width="10.67" height="3.88"/><rect class="cls-24" x="858.65" y="101.44" width="10.67" height="3.88"/><rect class="cls-33" x="858.65" y="105.65" width="10.67" height="3.88"/><rect class="cls-32" x="870.17" y="93.04" width="10.67" height="3.88"/><rect class="cls-2" x="870.17" y="88.84" width="10.67" height="3.88"/><rect class="cls-2" x="870.17" y="84.64" width="10.67" height="3.88"/><rect class="cls-32" x="870.17" y="80.43" width="10.67" height="3.88"/><rect class="cls-25" x="870.17" y="97.24" width="10.67" height="3.88"/><rect class="cls-4" x="870.17" y="101.44" width="10.67" height="3.88"/><rect class="cls-32" x="870.17" y="105.65" width="10.67" height="3.88"/><rect class="cls-4" x="881.81" y="93.04" width="10.67" height="3.88"/><rect class="cls-36" x="881.81" y="88.84" width="10.67" height="3.88"/><rect class="cls-32" x="881.81" y="84.64" width="10.67" height="3.88"/><rect class="cls-36" x="881.81" y="97.24" width="10.67" height="3.88"/><rect class="cls-2" x="881.81" y="101.44" width="10.67" height="3.88"/><rect class="cls-2" x="881.81" y="105.65" width="10.67" height="3.88"/><rect class="cls-32" x="893.39" y="93.04" width="10.67" height="3.88"/><rect class="cls-2" x="893.39" y="88.84" width="10.67" height="3.88"/><rect class="cls-25" x="893.39" y="84.64" width="10.67" height="3.88"/><rect class="cls-32" x="893.39" y="80.43" width="10.67" height="3.88"/><rect class="cls-4" x="893.39" y="97.24" width="10.67" height="3.88"/><rect class="cls-32" x="893.39" y="101.44" width="10.67" height="3.88"/><rect class="cls-2" x="893.39" y="105.65" width="10.67" height="3.88"/><rect class="cls-33" x="905.06" y="93.04" width="10.67" height="3.88"/><rect class="cls-32" x="905.06" y="88.84" width="10.67" height="3.88"/><path class="cls-25" d="M1028.82,130.24v3l-.69.82h-10v-3.87Z" transform="translate(-113.09 -32.99)"/><path class="cls-25" d="M1027.86,134.44c-1,1.17-2.15,2.56-3.24,3.88h-6.46v-3.88Z" transform="translate(-113.09 -32.99)"/><path class="cls-32" d="M1024.35,138.64c-1.45,1.74-2.75,3.28-3.27,3.88h-2.92v-3.88Z" transform="translate(-113.09 -32.99)"/></g><g id="container"><rect class="cls-37" x="758.3" y="344.36" width="177.22" height="64.44"/><rect class="cls-38" x="763.42" y="347.92" width="4.05" height="56.9"/><rect class="cls-38" x="771.54" y="347.92" width="4.05" height="56.9"/><rect class="cls-38" x="779.65" y="347.92" width="4.05" height="56.9"/><rect class="cls-38" x="787.77" y="347.92" width="4.05" height="56.9"/><rect class="cls-38" x="795.88" y="347.92" width="4.05" height="56.9"/><rect class="cls-38" x="804" y="347.92" width="4.05" height="56.9"/><rect class="cls-38" x="812.11" y="347.92" width="4.05" height="56.9"/><rect class="cls-38" x="820.23" y="347.92" width="4.05" height="56.9"/><rect class="cls-38" x="828.34" y="347.92" width="4.05" height="56.9"/><rect class="cls-38" x="836.46" y="347.92" width="4.05" height="56.9"/><rect class="cls-38" x="844.58" y="347.92" width="4.05" height="56.9"/><rect class="cls-38" x="852.69" y="347.92" width="4.05" height="56.9"/><rect class="cls-38" x="860.81" y="348.36" width="4.05" height="56.9"/><rect class="cls-38" x="868.92" y="348.36" width="4.05" height="56.9"/><rect class="cls-38" x="877.04" y="348.36" width="4.05" height="56.9"/><rect class="cls-38" x="885.15" y="348.36" width="4.05" height="56.9"/><rect class="cls-38" x="893.27" y="348.36" width="4.05" height="56.9"/><rect class="cls-38" x="901.38" y="348.36" width="4.05" height="56.9"/><rect class="cls-38" x="909.5" y="348.36" width="4.05" height="56.9"/><rect class="cls-38" x="917.61" y="348.36" width="4.05" height="56.9"/><rect class="cls-38" x="925.73" y="348.36" width="4.05" height="56.9"/><path d="M1047.3,378.67v61.82H872.52V378.67H1047.3m1.31-1.31H871.21V441.8h177.4V377.36Z" transform="translate(-113.09 -32.99)"/></g><g id="_18_wheeler" data-name="18 wheeler"><rect class="cls-39" x="756.84" y="621.96" width="132.61" height="37.23"/><path class="cls-3" d="M1051.13,698.33c-.52-.87-2.15-8.53-2.22-10a4,4,0,0,0-.55-2.35c-.22-.2-17.64-4.22-17.64-4.22s-1.08-.46-1.22-1-6-11.81-8.68-14.72-7.91-8-14.67-7.19c0,0-.49,38.48,0,38.48h-5v-5.12H868.88v2.6h1a.46.46,0,0,1,.33,0,1.92,1.92,0,0,1,2,2.09v2.4h3.48a8.32,8.32,0,0,1,14.52,0h3.46a8.32,8.32,0,0,1,14.52,0h7.13l13.54-6.11h37.36V697h-2.19v8.28h2.79a8,8,0,0,1-.24-2,8.31,8.31,0,0,1,16.62,0,8,8,0,0,1-.24,2h2.15a8,8,0,0,1-.24-2,8.32,8.32,0,0,1,16.63,0,8,8,0,0,1-.24,2h28.58a8.5,8.5,0,0,1-.23-2,8.31,8.31,0,0,1,16.61,0,8,8,0,0,1-.24,2h6.64v-5.38A6.89,6.89,0,0,1,1051.13,698.33ZM1023,681.47a2.26,2.26,0,0,1-.52,0c-.15,0-8.72-.59-10.85-.66s-2.23-1.44-2.26-1.65a1.52,1.52,0,0,1,0-.35s0-4.7,0-6,1.47-1.19,1.77-1.19h.5l6,.51a8.16,8.16,0,0,1,1.11.23,9.07,9.07,0,0,1,3,1.24,3.11,3.11,0,0,1,.41.6s1.46,5.49,1.58,6.29A.9.9,0,0,1,1023,681.47Z" transform="translate(-113.09 -32.99)"/><path class="cls-3" d="M975,696a7.38,7.38,0,1,0,7.38,7.38A7.37,7.37,0,0,0,975,696Zm0,11.34a4.21,4.21,0,1,1,4.21-4.21A4.21,4.21,0,0,1,975,707.29Z" transform="translate(-113.09 -32.99)"/><path class="cls-3" d="M900.89,696a7.38,7.38,0,1,0,7.38,7.38A7.38,7.38,0,0,0,900.89,696Zm0,11.34a4.21,4.21,0,1,1,4.2-4.21A4.21,4.21,0,0,1,900.89,707.29Z" transform="translate(-113.09 -32.99)"/><path class="cls-3" d="M882.87,696a7.38,7.38,0,1,0,7.38,7.38A7.38,7.38,0,0,0,882.87,696Zm0,11.34a4.21,4.21,0,1,1,4.21-4.21A4.21,4.21,0,0,1,882.87,707.29Z" transform="translate(-113.09 -32.99)"/><path class="cls-3" d="M993.27,696a7.38,7.38,0,1,0,7.38,7.38A7.37,7.37,0,0,0,993.27,696Zm0,11.34a4.21,4.21,0,1,1,4.22-4.21A4.21,4.21,0,0,1,993.27,707.29Z" transform="translate(-113.09 -32.99)"/><path class="cls-3" d="M1037.85,696a7.38,7.38,0,1,0,7.37,7.38A7.38,7.38,0,0,0,1037.85,696Zm0,11.34a4.21,4.21,0,1,1,4.21-4.21A4.22,4.22,0,0,1,1037.85,707.29Z" transform="translate(-113.09 -32.99)"/></g><g id="arrows"><path class="cls-40" d="M421.75,389.7a49.64,49.64,0,0,0,5.89-1.09" transform="translate(-113.09 -32.99)"/><path class="cls-41" d="M450.46,378.91C536.94,329.2,673,128.55,783.1,104.05" transform="translate(-113.09 -32.99)"/><path class="cls-40" d="M795.37,102.05c2-.2,4-.34,6-.41" transform="translate(-113.09 -32.99)"/><circle class="cls-42" cx="422.01" cy="389.63" r="4.7" transform="translate(-183.26 652.71) rotate(-73.74)"/><path class="cls-2" d="M422.4,394.94a5.32,5.32,0,1,0-5.7-4.92,5.32,5.32,0,0,0,5.7,4.92C425.33,394.73,419.48,395.16,422.4,394.94Zm-.69-9.37a4.07,4.07,0,1,1-3.76,4.36,4.08,4.08,0,0,1,3.76-4.36Z" transform="translate(-113.09 -32.99)"/><polygon class="cls-2" points="676.91 85.01 674.17 82.44 686.84 68.98 672.48 57.32 674.85 54.41 692.34 68.61 676.91 85.01"/><path class="cls-40" d="M421.73,657.2a33,33,0,0,0,5.73-1.74" transform="translate(-113.09 -32.99)"/><path class="cls-43" d="M447.66,641.9c86.46-77.9,224.53-418.49,336-459.45" transform="translate(-113.09 -32.99)"/><path class="cls-40" d="M795.41,179.24a55.13,55.13,0,0,1,6-.71" transform="translate(-113.09 -32.99)"/><path class="cls-42" d="M422.52,661.8a4.7,4.7,0,1,1,4.14-5.2A4.7,4.7,0,0,1,422.52,661.8Z" transform="translate(-113.09 -32.99)"/><path class="cls-2" d="M422.59,662.42a5.32,5.32,0,1,0-5.89-4.69,5.33,5.33,0,0,0,5.89,4.69Zm-1-9.34a4.08,4.08,0,1,1-3.6,4.51,4.08,4.08,0,0,1,3.6-4.51Z" transform="translate(-113.09 -32.99)"/><polygon class="cls-2" points="677.76 162.59 674.9 160.16 686.87 146.07 671.94 135.16 674.16 132.13 692.34 145.43 677.76 162.59"/><path class="cls-40" d="M421.75,949a55.56,55.56,0,0,0,5.91-1" transform="translate(-113.09 -32.99)"/><path class="cls-44" d="M449.63,939.67C535,895.75,666.7,715.51,776.56,694.21" transform="translate(-113.09 -32.99)"/><path class="cls-40" d="M788.22,692.55c2-.17,4-.29,6-.35" transform="translate(-113.09 -32.99)"/><path class="cls-42" d="M422.32,953.63a4.69,4.69,0,1,1,4.38-5A4.68,4.68,0,0,1,422.32,953.63Z" transform="translate(-113.09 -32.99)"/><path class="cls-2" d="M422.37,954.26a5.33,5.33,0,1,0-5.67-5,5.34,5.34,0,0,0,5.67,5Zm-.62-9.38a4.07,4.07,0,1,1-3.8,4.33,4.07,4.07,0,0,1,3.8-4.33Z" transform="translate(-113.09 -32.99)"/><polygon class="cls-2" points="669.63 675.45 666.91 672.86 679.69 659.49 665.43 647.72 667.82 644.83 685.19 659.17 669.63 675.45"/><path class="cls-45" d="M1141.52,949C1227.39,940.16,1378.58,713,1504,709.55" transform="translate(-113.09 -32.99)"/><path class="cls-42" d="M1142.08,953.66a4.7,4.7,0,1,1,4.4-5A4.7,4.7,0,0,1,1142.08,953.66Z" transform="translate(-113.09 -32.99)"/><path class="cls-2" d="M1142.12,954.28a5.33,5.33,0,1,0-5.65-5,5.32,5.32,0,0,0,5.65,5Zm-.58-9.38a4.07,4.07,0,1,1-3.82,4.32,4.07,4.07,0,0,1,3.82-4.32Z" transform="translate(-113.09 -32.99)"/><polygon class="cls-2" points="1379.34 692.74 1376.64 690.14 1389.48 676.83 1375.26 665 1377.67 662.12 1394.97 676.53 1379.34 692.74"/><path class="cls-40" d="M421.73,929a33.64,33.64,0,0,0,5.74-1.72" transform="translate(-113.09 -32.99)"/><path class="cls-46" d="M447.32,914.18c85.34-75.78,218.51-408.32,329.4-447.92" transform="translate(-113.09 -32.99)"/><path class="cls-40" d="M788.26,463.21a58.05,58.05,0,0,1,6-.7" transform="translate(-113.09 -32.99)"/><path class="cls-42" d="M422.51,933.6a4.7,4.7,0,1,1,4.16-5.19A4.71,4.71,0,0,1,422.51,933.6Z" transform="translate(-113.09 -32.99)"/><path class="cls-2" d="M422.58,934.22a5.33,5.33,0,1,0-5.88-4.71,5.33,5.33,0,0,0,5.88,4.71Zm-1-9.34a4.07,4.07,0,1,1-3.61,4.49,4.06,4.06,0,0,1,3.61-4.49C423.78,924.63,419.31,925.12,421.55,924.88Z" transform="translate(-113.09 -32.99)"/><polygon class="cls-2" points="670.56 446.54 667.71 444.1 679.72 430.05 664.82 419.09 667.04 416.07 685.19 429.41 670.56 446.54"/><path class="cls-45" d="M1141.57,650.81C1227.43,633.56,1378.58,190,1504,182" transform="translate(-113.09 -32.99)"/><path class="cls-42" d="M1142.35,655.41a4.7,4.7,0,1,1,4.15-5.2A4.71,4.71,0,0,1,1142.35,655.41Z" transform="translate(-113.09 -32.99)"/><path class="cls-2" d="M1142.42,656a5.33,5.33,0,1,0-5.89-4.71,5.34,5.34,0,0,0,5.89,4.71C1145.33,655.7,1139.5,656.35,1142.42,656Zm-1-9.34a4.07,4.07,0,1,1-3.6,4.5,4.08,4.08,0,0,1,3.6-4.5C1143.61,646.44,1139.14,646.93,1141.38,646.69Z" transform="translate(-113.09 -32.99)"/><polygon class="cls-2" points="1380.37 166 1377.51 163.57 1389.51 149.5 1374.59 138.57 1376.81 135.54 1394.97 148.86 1380.37 166"/><path class="cls-40" d="M421.75,144.13a55.71,55.71,0,0,1,5.91,1" transform="translate(-113.09 -32.99)"/><path class="cls-47" d="M449.7,153.59c85.25,44.35,216.37,226,326.12,249.71" transform="translate(-113.09 -32.99)"/><path class="cls-40" d="M787.5,405.22c2,.23,4,.39,6,.5" transform="translate(-113.09 -32.99)"/><path class="cls-42" d="M421.7,148.89a4.7,4.7,0,1,1,5-4.38A4.69,4.69,0,0,1,421.7,148.89Z" transform="translate(-113.09 -32.99)"/><path class="cls-2" d="M421.66,149.51a5.32,5.32,0,1,0-5-5.66,5.33,5.33,0,0,0,5,5.66C424.59,149.71,418.73,149.32,421.66,149.51Zm.63-9.38a4.08,4.08,0,1,1-4.34,3.8,4.08,4.08,0,0,1,4.34-3.8C424.53,140.28,420,140,422.29,140.13Z" transform="translate(-113.09 -32.99)"/><polygon class="cls-2" points="666.75 386.79 664.43 383.84 678.96 372.41 666.49 358.75 669.27 356.22 684.45 372.86 666.75 386.79"/><path class="cls-45" d="M1132.18,144.13c86.2,9.56,246.21,254.89,371.82,261.59" transform="translate(-113.09 -32.99)"/><path class="cls-42" d="M1132.13,148.89a4.7,4.7,0,1,1,5-4.38A4.7,4.7,0,0,1,1132.13,148.89Z" transform="translate(-113.09 -32.99)"/><path class="cls-2" d="M1132.09,149.51a5.32,5.32,0,1,0-5-5.66,5.32,5.32,0,0,0,5,5.66Zm.62-9.38a4.08,4.08,0,1,1-4.34,3.8,4.09,4.09,0,0,1,4.34-3.8C1135,140.28,1130.47,140,1132.71,140.13Z" transform="translate(-113.09 -32.99)"/><polygon class="cls-2" points="1377.28 386.79 1374.96 383.84 1389.49 372.41 1377.02 358.75 1379.79 356.22 1394.97 372.86 1377.28 386.79"/><path class="cls-45" d="M1128.65,409.76C1215,418.57,1378.32,644.9,1504,651.2" transform="translate(-113.09 -32.99)"/><path class="cls-42" d="M1128.63,414.51a4.7,4.7,0,1,1,5-4.4A4.69,4.69,0,0,1,1128.63,414.51Z" transform="translate(-113.09 -32.99)"/><path class="cls-2" d="M1128.59,415.14a5.32,5.32,0,1,0-5-5.64,5.33,5.33,0,0,0,5,5.64Zm.57-9.38a4.07,4.07,0,1,1-4.31,3.81,4.07,4.07,0,0,1,4.31-3.81C1131.41,405.89,1126.92,405.62,1129.16,405.76Z" transform="translate(-113.09 -32.99)"/><polygon class="cls-2" points="1377.36 632.36 1375.02 629.43 1389.48 617.91 1376.94 604.33 1379.7 601.78 1394.97 618.33 1377.36 632.36"/><path class="cls-45" d="M1133.71,708.76c86.15,8.82,244.72,235.13,370.29,241.43" transform="translate(-113.09 -32.99)"/><path class="cls-42" d="M1133.69,713.51a4.7,4.7,0,1,1,5-4.41A4.71,4.71,0,0,1,1133.69,713.51Z" transform="translate(-113.09 -32.99)"/><path class="cls-2" d="M1133.65,714.13a5.32,5.32,0,1,0-5-5.64,5.33,5.33,0,0,0,5,5.64Zm.57-9.38a4.07,4.07,0,1,1-4.31,3.82,4.07,4.07,0,0,1,4.31-3.82Z" transform="translate(-113.09 -32.99)"/><polygon class="cls-2" points="1377.36 931.35 1375.02 928.42 1389.48 916.9 1376.94 903.31 1379.7 900.77 1394.97 917.33 1377.36 931.35"/><path class="cls-40" d="M421.75,676a49.27,49.27,0,0,1,5.89,1.09" transform="translate(-113.09 -32.99)"/><path class="cls-48" d="M450.17,686.78c85.16,49.52,215.77,249.55,325.24,276.05" transform="translate(-113.09 -32.99)"/><path class="cls-40" d="M787.49,965.05q3,.36,6,.54" transform="translate(-113.09 -32.99)"/><path class="cls-42" d="M421.67,680.8a4.7,4.7,0,1,1,5-4.35A4.7,4.7,0,0,1,421.67,680.8Z" transform="translate(-113.09 -32.99)"/><path class="cls-2" d="M421.62,681.42a5.32,5.32,0,1,0-4.92-5.7,5.32,5.32,0,0,0,4.92,5.7Zm.69-9.37a4.07,4.07,0,1,1-4.36,3.76,4.08,4.08,0,0,1,4.36-3.76Z" transform="translate(-113.09 -32.99)"/><polygon class="cls-2" points="666.65 946.53 664.35 943.57 678.96 932.25 666.6 918.49 669.39 915.99 684.45 932.74 666.65 946.53"/></g></g></svg>