<svg id="Layer_1" data-name="Layer 1" xmlns="http://www.w3.org/2000/svg" viewBox="0 0 322.29 338"><defs><style>.cls-1{fill:#fff;}</style></defs><path class="cls-1" d="M327,6a63.23,63.23,0,0,1,1,7.82q.07,119,0,238c0,7.28-.12,7.39-7.14,7.39-10.67,0-21.34-.16-32,.09-4.18.09-5.77-1.6-5.7-5.5,0-1.49,0-3,0-4.49V58.8c0-7.83-.25-8.24-8.09-8.25-13.49,0-27-.13-40.47.39C206.82,52,188.32,74.57,189,104.73c.66,28.46.37,57,.44,85.43.05,20.49,0,41,0,61.48,0,7.51,0,7.52-7.49,7.53q-15.75,0-31.5,0c-6.2,0-6.35-.17-6.35-6.55q0-76.73,0-153.46c0-27.43-19.74-47.68-47.24-48.29-12.65-.27-25.32-.32-38-.32-8.21,0-8.79.67-8.79,8.79V251.79c0,7.37,0,7.37-7.45,7.38-10.5,0-21-.13-31.49.06-4.14.08-5.47-1.42-5.47-5.53q.13-121,.12-241.95c0-1.92.72-3.83,1.11-5.75H108c.39.26.75.71,1.16.77a89.46,89.46,0,0,1,53.56,26.56c3,3.06,5.52,2.71,8.44-.26A85.74,85.74,0,0,1,205.37,11.3C212.08,9.06,219.09,7.74,226,6Z" transform="translate(-5.7 -6)"/><path class="cls-1" d="M126,344c-1.47-.68-2.92-1.39-4.41-2a24.82,24.82,0,0,1-15-23.38c.28-10.37,5-18.34,14.54-22.59s19-3.36,28,3.26l-5,5.88c-5.57-3.1-11.53-5-17.48-2.06a22.08,22.08,0,0,0-8.16,6.94c-4.39,6.35-3,15.6,2.52,21.13,6.1,6.15,13.67,6.32,24.07.31l5.61,6.3L139,344Z" transform="translate(-5.7 -6)"/><path class="cls-1" d="M75.11,167V83.51c0-7.51.25-7.86,7.81-8,5.49-.08,11,.06,16.47.34,11.6.58,19.48,8.69,19.7,20.32s.34,23,.35,34.46q.06,59.72,0,119.42c0,8.74-.36,9.09-8.84,9.09q-14,0-28,0c-7.07,0-7.52-.46-7.52-7.76Z" transform="translate(-5.7 -6)"/><path class="cls-1" d="M258.48,167q0,41.46,0,82.93c0,1.66.41,3.61-.31,4.91-.94,1.7-2.78,4.07-4.29,4.12-11.65.34-23.32.16-35,.21-3.19,0-4.46-1.78-4.71-4.62-.11-1.32-.05-2.66-.05-4q0-74.94,0-149.9c0-16.6,6.59-23.82,23-24.88,5.31-.34,10.65,0,16-.11,3.9-.11,5.13,1.54,5.08,5.39-.18,14.66-.07,29.32-.07,44v42Z" transform="translate(-5.7 -6)"/><path class="cls-1" d="M6.19,294.6c4.83-1.31,8-.1,10.65,4.12,4.33,6.87,9.33,13.31,14.41,20.44,4.92-7,9.83-13.36,14.14-20.14,2.71-4.28,5.88-6,11-4.35v48.24H47.91V312.13l-1-.37L31.23,334.07,15,310.92V342.8H6.19Z" transform="translate(-5.7 -6)"/><path class="cls-1" d="M237.81,321.33v14.16h29.76v7.3h-38.7V294.45h37.65v7.48H237.81v11.7h26.81v7.7Z" transform="translate(-5.7 -6)"/><path class="cls-1" d="M176.38,294.41v26l1.08.51,5-6.26c3.75-4.67,7.84-9.12,11.17-14.08,3.67-5.46,8-8.23,15.33-5.66-5.68,7.29-11.4,14.66-17.34,22.28,6.38,8.39,12.67,16.69,19.4,25.54-6.15.73-11,1.3-14.5-4.88-2.81-5-6.9-9.26-10.67-14.17-4.79,5.91-11.45,10.21-9.33,19.17h-8.76V294.41Z" transform="translate(-5.7 -6)"/><path class="cls-1" d="M309.15,342.93h-9c0-6,.28-11.79-.12-17.55a17.4,17.4,0,0,0-2.62-8.17c-5-7.56-10.48-14.82-15.94-22.43,6.58-1.73,11.12-.6,14.32,5.23,2.38,4.32,5.68,8.14,8.92,12.67,3.11-4.41,6.41-8.22,8.7-12.56,3.13-5.92,7.64-7.1,14.25-5.34-4.64,6.51-8.86,13-13.72,19a20.58,20.58,0,0,0-4.86,15.58C309.46,333.69,309.15,338,309.15,342.93Z" transform="translate(-5.7 -6)"/><path class="cls-1" d="M78.44,294.43h8.34v48.49H78.44Z" transform="translate(-5.7 -6)"/></svg>